<?xml version="1.0" encoding="UTF-8"?>
<svg width="329px" height="190px" viewBox="0 0 329 190" version="1.1" xmlns="http://www.w3.org/2000/svg" xmlns:xlink="http://www.w3.org/1999/xlink">
    <title>footer</title>
    <g id="Page-1" stroke="none" stroke-width="1" fill="none" fill-rule="evenodd">
        <g id="Large-Devices:-Desktops---12-col" transform="translate(-348.000000, -3339.000000)" fill-rule="nonzero">
            <g id="footer" transform="translate(0.000000, 3339.000000)">
                <g transform="translate(348.000000, -0.000000)" id="Group">
                    <g transform="translate(24.250000, 34.050000)">
                        <path d="M278.34,67.93 C272.61,75.27 223.61,135.86 139.17,135.86 C54.73,135.86 5.73,75.27 0,67.93 C5.73,60.59 54.73,0 139.17,0 C223.61,0 272.61,60.59 278.34,67.93 Z" id="Path" fill="#FFFFFF"></path>
                        <circle id="Oval" fill="#4B192B" cx="139.17" cy="67.93" r="54.43"></circle>
                    </g>
                    <g transform="translate(15.176170, 107.779156)" fill="#000000">
                        <path d="M0.403830353,6.41084404 C3.06383035,4.35084404 5.71383035,2.29084404 8.37383035,0.230844037 C8.90383035,-0.179155963 9.56383035,-0.0291559633 10.0438304,0.570844037 C11.0738304,1.88084404 12.1238304,3.17084404 13.1838304,4.45084404 C15.2838304,6.97084404 15.6438304,9.03084404 14.0938304,10.410844 C13.1038304,11.290844 11.8038304,11.180844 10.3238304,10.100844 C11.5038304,12.120844 11.3538304,13.680844 10.2738304,14.640844 C8.57383035,16.170844 6.43383035,15.530844 3.71383035,12.290844 C2.58383035,10.940844 1.47383035,9.57084404 0.383830353,8.18084404 C-0.136169647,7.53084404 -0.126169647,6.82084404 0.403830353,6.41084404 Z M8.87383035,7.64084404 C10.0438304,9.05084404 11.3738304,9.42084404 12.2638304,8.65084404 C13.1838304,7.85084404 13.0138304,6.70084404 11.7538304,5.18084404 C10.9938304,4.27084404 10.2438304,3.35084404 9.50383035,2.41084404 C8.51383035,3.20084404 7.53383035,3.98084404 6.54383035,4.77084404 C7.31383035,5.74084404 8.09383035,6.69084404 8.87383035,7.63084404 L8.87383035,7.64084404 Z M4.82383035,11.140844 C6.47383035,13.120844 7.62383035,13.520844 8.69383035,12.590844 C9.66383035,11.740844 9.39383035,10.450844 7.90383035,8.66084404 C7.07383035,7.67084404 6.25383035,6.66084404 5.44383035,5.64084404 C4.41383035,6.46084404 3.38383035,7.28084404 2.35383035,8.10084404 C3.16383035,9.12084404 3.98383035,10.130844 4.81383035,11.130844 L4.82383035,11.140844 Z" id="Shape"></path>
                        <path d="M9.38383035,23.470844 C10.7338304,23.100844 12.0838304,22.720844 13.4238304,22.330844 C13.0738304,21.920844 12.9538304,21.620844 13.0938304,21.220844 C13.9638304,18.440844 14.8738304,15.700844 15.8438304,12.980844 C15.8938304,12.870844 16.5638304,12.960844 17.0738304,13.500844 C17.5238304,13.980844 17.6438304,14.470844 17.3038304,15.310844 C16.4738304,17.500844 15.6738304,19.700844 14.9138304,21.930844 C17.0538304,21.130844 19.1838304,20.310844 21.2838304,19.450844 C22.1038304,19.090844 22.6538304,19.260844 23.0838304,19.680844 C23.5338304,20.120844 23.6938304,20.850844 23.5938304,20.890844 C19.7038304,22.410844 15.7438304,23.820844 11.7238304,25.130844 C10.8638304,25.420844 10.3138304,25.180844 9.91383035,24.760844 C9.42383035,24.250844 9.28383035,23.490844 9.38383035,23.460844 L9.38383035,23.470844 Z" id="Path"></path>
                        <path d="M29.8638304,25.800844 C32.2438304,27.900844 32.6738304,30.650844 30.9438304,32.780844 C30.9138304,32.820844 30.8838304,32.860844 30.8438304,32.900844 C30.5938304,33.210844 30.3638304,33.220844 29.9538304,32.870844 C27.8238304,31.090844 25.7238304,29.250844 23.6638304,27.350844 C23.5838304,27.430844 23.5238304,27.530844 23.4638304,27.630844 C22.6938304,28.960844 23.1438304,30.720844 24.6738304,32.070844 C26.1838304,33.400844 27.4138304,33.510844 28.3838304,33.260844 C28.4438304,33.260844 29.2338304,34.150844 28.7338304,34.770844 C28.4838304,35.080844 27.8238304,35.200844 26.9138304,34.980844 C26.0038304,34.760844 24.8638304,34.210844 23.6638304,33.150844 C20.8938304,30.710844 20.4138304,27.590844 22.3738304,25.520844 C24.2838304,23.500844 27.4338304,23.650844 29.8638304,25.790844 L29.8638304,25.800844 Z M28.9038304,26.860844 C27.5338304,25.660844 25.7738304,25.500844 24.5338304,26.430844 C26.1938304,27.960844 27.8838304,29.450844 29.5838304,30.900844 C30.5138304,29.620844 30.2838304,28.080844 28.8938304,26.860844 L28.9038304,26.860844 Z" id="Shape"></path>
                        <path d="M31.4638304,37.940844 C33.5538304,35.300844 35.6438304,32.670844 37.7338304,30.030844 C38.1438304,29.510844 38.8038304,29.470844 39.3838304,29.930844 C40.6338304,30.910844 41.8838304,31.870844 43.1538304,32.800844 C45.6638304,34.660844 46.4238304,36.530844 45.2438304,38.240844 C44.4838304,39.330844 43.2338304,39.550844 41.6038304,38.900844 C43.1438304,40.520844 43.3238304,42.040844 42.4938304,43.230844 C41.1938304,45.120844 39.0338304,45.050844 35.7938304,42.660844 C34.4538304,41.660844 33.1238304,40.650844 31.7938304,39.610844 C31.1738304,39.120844 31.0338304,38.450844 31.4438304,37.930844 L31.4638304,37.940844 Z M39.7238304,36.940844 C41.1238304,37.980844 42.4538304,38.000844 43.1438304,37.040844 C43.8538304,36.050844 43.4538304,35.000844 41.9438304,33.880844 C41.0438304,33.210844 40.1438304,32.520844 39.2438304,31.830844 C38.4738304,32.830844 37.7038304,33.830844 36.9338304,34.820844 C37.8638304,35.540844 38.7938304,36.240844 39.7238304,36.940844 L39.7238304,36.940844 Z M36.6038304,41.300844 C38.5738304,42.760844 39.7438304,42.850844 40.5638304,41.700844 C41.3138304,40.640844 40.7838304,39.480844 39.0038304,38.170844 C38.0138304,37.440844 37.0338304,36.690844 36.0638304,35.940844 C35.2538304,36.980844 34.4538304,38.030844 33.6438304,39.070844 C34.6238304,39.830844 35.6038304,40.580844 36.5938304,41.310844 L36.6038304,41.300844 Z" id="Shape"></path>
                        <path d="M43.4938304,51.890844 C44.7038304,51.200844 45.9038304,50.500844 47.0838304,49.790844 C46.6638304,49.480844 46.4938304,49.230844 46.5438304,48.810844 C46.7938304,45.940844 47.0838304,43.090844 47.4338304,40.250844 C47.4638304,40.130844 48.1138304,40.040844 48.7138304,40.440844 C49.2338304,40.790844 49.4538304,41.230844 49.3138304,42.110844 C48.9838304,44.410844 48.6838304,46.710844 48.4238304,49.030844 C50.2938304,47.730844 52.1338304,46.420844 53.9538304,45.070844 C54.6538304,44.520844 55.2138304,44.540844 55.7138304,44.840844 C56.2338304,45.150844 56.5338304,45.810844 56.4538304,45.870844 C53.0738304,48.290844 49.6138304,50.620844 46.0638304,52.880844 C45.3038304,53.370844 44.7338304,53.280844 44.2738304,52.980844 C43.7038304,52.620844 43.4138304,51.930844 43.5038304,51.870844 L43.4938304,51.890844 Z" id="Path"></path>
                        <path d="M63.4338304,49.050844 C66.1438304,50.490844 67.1438304,53.040844 65.9338304,55.500844 C65.9138304,55.550844 65.8938304,55.590844 65.8638304,55.640844 C65.6838304,56.000844 65.4738304,56.060844 65.0038304,55.830844 C62.5938304,54.630844 60.2138304,53.370844 57.8438304,52.060844 C57.7838304,52.160844 57.7538304,52.270844 57.7138304,52.380844 C57.2638304,53.850844 58.0638304,55.420844 59.8038304,56.350844 C61.5238304,57.260844 62.7138304,57.070844 63.5938304,56.600844 C63.6538304,56.590844 64.5938304,57.250844 64.2438304,57.970844 C64.0638304,58.330844 63.4638304,58.600844 62.5538304,58.610844 C61.6438304,58.610844 60.4338304,58.370844 59.0738304,57.640844 C55.9238304,55.970844 54.8138304,53.100844 56.2438304,50.630844 C57.6338304,48.230844 60.6638304,47.590844 63.4238304,49.050844 L63.4338304,49.050844 Z M62.7438304,50.300844 C61.1938304,49.480844 59.4738304,49.760844 58.4938304,50.960844 C60.3938304,52.020844 62.3138304,53.040844 64.2438304,54.020844 C64.8538304,52.560844 64.3138304,51.140844 62.7338304,50.300844 L62.7438304,50.300844 Z" id="Shape"></path>
                        <path d="M67.5338304,60.350844 C68.9638304,57.310844 70.4038304,54.260844 71.8338304,51.220844 C72.1138304,50.620844 72.7338304,50.420844 73.3838304,50.730844 C74.7838304,51.370844 76.1838304,52.000844 77.5938304,52.600844 C80.3838304,53.800844 81.5238304,55.430844 80.7538304,57.360844 C80.2638304,58.600844 79.1038304,59.100844 77.4238304,58.860844 C79.2338304,60.060844 79.7338304,61.490844 79.2038304,62.840844 C78.3638304,64.980844 76.2838304,65.420844 72.6838304,63.880844 C71.1938304,63.240844 69.7038304,62.580844 68.2238304,61.890844 C67.5338304,61.570844 67.2538304,60.960844 67.5338304,60.350844 L67.5338304,60.350844 Z M75.2038304,57.400844 C76.7638304,58.070844 78.0438304,57.770844 78.4838304,56.680844 C78.9438304,55.550844 78.3438304,54.630844 76.6638304,53.910844 C75.6538304,53.480844 74.6538304,53.030844 73.6538304,52.580844 C73.1338304,53.730844 72.6038304,54.880844 72.0838304,56.020844 C73.1238304,56.490844 74.1638304,56.950844 75.2038304,57.400844 L75.2038304,57.400844 Z M73.1638304,62.360844 C75.3638304,63.300844 76.4938304,63.120844 77.0338304,61.800844 C77.5238304,60.600844 76.7738304,59.610844 74.7938304,58.760844 C73.6938304,58.290844 72.5938304,57.800844 71.5038304,57.310844 C70.9538304,58.510844 70.4138304,59.710844 69.8638304,60.910844 C70.9538304,61.410844 72.0538304,61.890844 73.1638304,62.370844 L73.1638304,62.360844 Z" id="Shape"></path>
                        <path d="M82.0138304,70.970844 C83.0238304,70.020844 84.0138304,69.060844 85.0038304,68.100844 C84.5438304,67.900844 84.3138304,67.700844 84.2738304,67.280844 C83.8938304,64.440844 83.5638304,61.610844 83.2938304,58.780844 C83.2938304,58.660844 83.9038304,58.420844 84.5538304,58.660844 C85.1338304,58.870844 85.4338304,59.250844 85.4838304,60.130844 C85.6638304,62.430844 85.8738304,64.740844 86.1238304,67.050844 C87.6338304,65.360844 89.1138304,63.650844 90.5738304,61.930844 C91.1238304,61.230844 91.6638304,61.130844 92.2038304,61.300844 C92.7638304,61.480844 93.2038304,62.050844 93.1338304,62.130844 C90.4138304,65.260844 87.6038304,68.330844 84.6938304,71.340844 C84.0738304,71.990844 83.5138304,72.040844 83.0038304,71.860844 C82.3838304,71.640844 81.9538304,71.040844 82.0238304,70.970844 L82.0138304,70.970844 Z" id="Path"></path>
                        <path d="M100.52383,63.600844 C103.43383,64.370844 104.95383,66.630844 104.33383,69.300844 C104.32383,69.350844 104.31383,69.400844 104.29383,69.450844 C104.20383,69.840844 104.01383,69.950844 103.51383,69.830844 C100.93383,69.210844 98.3738304,68.540844 95.8238304,67.810844 C95.7938304,67.920844 95.7838304,68.030844 95.7738304,68.150844 C95.6538304,69.680844 96.7638304,71.030844 98.6438304,71.520844 C100.49383,72.010844 101.59383,71.550844 102.33383,70.890844 C102.38383,70.870844 103.44383,71.290844 103.25383,72.070844 C103.16383,72.460844 102.64383,72.860844 101.76383,73.080844 C100.89383,73.290844 99.6738304,73.330844 98.2038304,72.940844 C94.8138304,72.040844 93.1338304,69.510844 93.9638304,66.790844 C94.7738304,64.140844 97.5438304,62.820844 100.51383,63.610844 L100.52383,63.600844 Z M100.13383,64.970844 C98.4638304,64.530844 96.8738304,65.190844 96.1938304,66.580844 C98.2538304,67.170844 100.31383,67.720844 102.38383,68.230844 C102.65383,66.670844 101.82383,65.410844 100.12383,64.960844 L100.13383,64.970844 Z" id="Shape"></path>
                        <path d="M106.92383,73.640844 C107.64383,70.350844 108.35383,67.070844 109.07383,63.780844 C109.21383,63.130844 109.76383,62.800844 110.45383,62.950844 C111.93383,63.260844 113.42383,63.550844 114.91383,63.820844 C117.86383,64.350844 119.32383,65.690844 119.00383,67.740844 C118.80383,69.050844 117.79383,69.810844 116.11383,69.950844 C118.12383,70.710844 118.92383,71.990844 118.70383,73.420844 C118.36383,75.690844 116.45383,76.580844 112.64383,75.900844 C111.06383,75.610844 109.48383,75.300844 107.91383,74.980844 C107.17383,74.830844 106.77383,74.290844 106.91383,73.640844 L106.92383,73.640844 Z M113.66383,69.040844 C115.31383,69.340844 116.47383,68.760844 116.67383,67.600844 C116.87383,66.400844 116.08383,65.640844 114.31383,65.310844 C113.24383,65.110844 112.18383,64.910844 111.12383,64.690844 C110.87383,65.920844 110.61383,67.160844 110.36383,68.400844 C111.46383,68.620844 112.56383,68.840844 113.67383,69.040844 L113.66383,69.040844 Z M112.77383,74.320844 C115.09383,74.740844 116.15383,74.310844 116.38383,72.900844 C116.59383,71.620844 115.64383,70.820844 113.55383,70.440844 C112.39383,70.230844 111.23383,70.000844 110.07383,69.770844 C109.81383,71.060844 109.54383,72.350844 109.28383,73.640844 C110.44383,73.880844 111.61383,74.100844 112.77383,74.310844 L112.77383,74.320844 Z" id="Shape"></path>
                        <path d="M123.21383,80.720844 C123.97383,79.570844 124.73383,78.410844 125.47383,77.250844 C124.98383,77.160844 124.72383,77.010844 124.58383,76.610844 C123.59383,73.930844 122.65383,71.250844 121.76383,68.550844 C121.73383,68.430844 122.27383,68.060844 122.95383,68.150844 C123.55383,68.230844 123.93383,68.530844 124.17383,69.380844 C124.85383,71.580844 125.56383,73.780844 126.30383,75.980844 C127.39383,73.990844 128.44383,72.000844 129.47383,70.000844 C129.85383,69.200844 130.35383,68.980844 130.91383,69.020844 C131.49383,69.070844 132.04383,69.530844 131.99383,69.620844 C130.05383,73.270844 128.00383,76.890844 125.85383,80.470844 C125.39383,81.240844 124.86383,81.420844 124.33383,81.350844 C123.68383,81.280844 123.13383,80.790844 123.19383,80.700844 L123.21383,80.720844 Z" id="Path"></path>
                        <path d="M139.49383,69.430844 C142.48383,69.540844 144.46383,71.410844 144.44383,74.140844 C144.44383,74.190844 144.44383,74.240844 144.44383,74.290844 C144.44383,74.690844 144.28383,74.840844 143.77383,74.830844 C141.13383,74.800844 138.50383,74.700844 135.86383,74.560844 C135.86383,74.670844 135.87383,74.790844 135.89383,74.900844 C136.11383,76.420844 137.49383,77.480844 139.41383,77.550844 C141.31383,77.620844 142.28383,76.930844 142.85383,76.120844 C142.90383,76.080844 144.01383,76.270844 144.01383,77.070844 C144.01383,77.470844 143.59383,77.980844 142.79383,78.380844 C141.99383,78.780844 140.82383,79.080844 139.31383,79.030844 C135.83383,78.900844 133.64383,76.810844 133.85383,73.970844 C134.05383,71.200844 136.44383,69.300844 139.50383,69.420844 L139.49383,69.430844 Z M139.41383,70.850844 C137.69383,70.790844 136.31383,71.790844 135.95383,73.290844 C138.07383,73.410844 140.19383,73.490844 142.32383,73.540844 C142.24383,71.960844 141.15383,70.920844 139.41383,70.850844 Z" id="Shape"></path>
                        <path d="M147.92383,77.810844 C147.89383,74.450844 147.86383,71.080844 147.82383,67.720844 C147.82383,67.060844 148.28383,66.610844 148.98383,66.600844 C150.49383,66.580844 152.00383,66.530844 153.51383,66.470844 C156.50383,66.340844 158.21383,67.330844 158.36383,69.400844 C158.45383,70.730844 157.64383,71.680844 156.04383,72.190844 C158.17383,72.490844 159.23383,73.570844 159.33383,75.010844 C159.50383,77.290844 157.84383,78.590844 153.98383,78.760844 C152.38383,78.830844 150.78383,78.870844 149.17383,78.900844 C148.42383,78.910844 147.91383,78.480844 147.91383,77.810844 L147.92383,77.810844 Z M153.46383,71.840844 C155.13383,71.770844 156.14383,70.950844 156.07383,69.770844 C156.00383,68.550844 155.06383,67.980844 153.26383,68.060844 C152.18383,68.100844 151.10383,68.140844 150.02383,68.160844 C150.05383,69.420844 150.08383,70.680844 150.10383,71.940844 C151.22383,71.920844 152.34383,71.880844 153.46383,71.840844 L153.46383,71.840844 Z M153.77383,77.190844 C156.12383,77.090844 157.05383,76.430844 156.97383,75.010844 C156.89383,73.720844 155.79383,73.150844 153.68383,73.230844 C152.50383,73.280844 151.32383,73.320844 150.14383,73.340844 C150.17383,74.660844 150.20383,75.970844 150.23383,77.290844 C151.41383,77.260844 152.59383,77.230844 153.78383,77.180844 L153.77383,77.190844 Z" id="Shape"></path>
                        <path d="M165.34383,81.140844 C165.83383,79.850844 166.31383,78.560844 166.77383,77.260844 C166.27383,77.280844 165.98383,77.190844 165.76383,76.830844 C164.20383,74.440844 162.69383,72.020844 161.23383,69.590844 C161.18383,69.480844 161.62383,69.010844 162.30383,68.940844 C162.90383,68.880844 163.34383,69.090844 163.77383,69.870844 C164.92383,71.870844 166.10383,73.860844 167.31383,75.840844 C167.93383,73.670844 168.52383,71.490844 169.08383,69.310844 C169.27383,68.440844 169.71383,68.120844 170.27383,68.040844 C170.85383,67.960844 171.49383,68.290844 171.46383,68.390844 C170.37383,72.380844 169.18383,76.360844 167.88383,80.330844 C167.61383,81.180844 167.12383,81.470844 166.59383,81.530844 C165.94383,81.600844 165.30383,81.240844 165.34383,81.150844 L165.34383,81.140844 Z" id="Path"></path>
                        <path d="M178.74383,66.550844 C181.69383,66.000844 184.04383,67.380844 184.63383,70.050844 C184.64383,70.100844 184.65383,70.150844 184.66383,70.200844 C184.74383,70.590844 184.62383,70.770844 184.12383,70.880844 C181.53383,71.430844 178.93383,71.920844 176.32383,72.360844 C176.34383,72.470844 176.38383,72.580844 176.42383,72.690844 C176.97383,74.120844 178.55383,74.860844 180.45383,74.500844 C182.33383,74.150844 183.12383,73.260844 183.50383,72.350844 C183.54383,72.300844 184.67383,72.240844 184.84383,73.020844 C184.92383,73.410844 184.63383,74.000844 183.94383,74.570844 C183.25383,75.140844 182.17383,75.690844 180.68383,75.970844 C177.25383,76.610844 174.64383,75.050844 174.21383,72.240844 C173.79383,69.490844 175.70383,67.120844 178.72383,66.560844 L178.74383,66.550844 Z M178.98383,67.950844 C177.29383,68.270844 176.15383,69.550844 176.14383,71.090844 C178.24383,70.740844 180.33383,70.350844 182.42383,69.930844 C181.99383,68.410844 180.69383,67.630844 178.98383,67.950844 Z" id="Shape"></path>
                        <path d="M188.85383,72.860844 C188.07383,69.590844 187.29383,66.320844 186.52383,63.040844 C186.37383,62.390844 186.72383,61.860844 187.41383,61.690844 C188.89383,61.330844 190.36383,60.950844 191.82383,60.560844 C194.72383,59.770844 196.63383,60.350844 197.23383,62.340844 C197.62383,63.610844 197.03383,64.730844 195.57383,65.580844 C197.73383,65.400844 199.00383,66.210844 199.43383,67.590844 C200.11383,69.780844 198.76383,71.410844 195.01383,72.440844 C193.45383,72.860844 191.89383,73.260844 190.33383,73.640844 C189.59383,73.820844 189.00383,73.510844 188.85383,72.860844 Z M192.95383,65.810844 C194.57383,65.370844 195.38383,64.350844 195.05383,63.220844 C194.71383,62.050844 193.67383,61.700844 191.92383,62.180844 C190.87383,62.460844 189.82383,62.730844 188.76383,63.000844 C189.07383,64.220844 189.37383,65.450844 189.68383,66.670844 C190.77383,66.400844 191.86383,66.120844 192.95383,65.820844 L192.95383,65.810844 Z M194.44383,70.960844 C196.72383,70.340844 197.50383,69.490844 197.09383,68.130844 C196.73383,66.890844 195.52383,66.570844 193.46383,67.130844 C192.31383,67.440844 191.17383,67.740844 190.02383,68.020844 C190.34383,69.300844 190.66383,70.580844 190.98383,71.850844 C192.13383,71.560844 193.28383,71.260844 194.43383,70.950844 L194.44383,70.960844 Z" id="Shape"></path>
                        <path d="M206.69383,72.230844 C206.89383,70.860844 207.07383,69.490844 207.24383,68.130844 C206.75383,68.260844 206.45383,68.240844 206.16383,67.940844 C204.09383,65.960844 202.07383,63.940844 200.10383,61.890844 C200.02383,61.790844 200.35383,61.230844 201.01383,61.020844 C201.59383,60.830844 202.06383,60.940844 202.66383,61.600844 C204.23383,63.290844 205.84383,64.970844 207.47383,66.620844 C207.60383,64.360844 207.69383,62.100844 207.76383,59.850844 C207.76383,58.960844 208.12383,58.540844 208.65383,58.340844 C209.20383,58.130844 209.91383,58.310844 209.90383,58.410844 C209.71383,62.550844 209.42383,66.700844 209.02383,70.860844 C208.94383,71.760844 208.53383,72.140844 208.02383,72.320844 C207.40383,72.530844 206.69383,72.330844 206.70383,72.230844 L206.69383,72.230844 Z" id="Path"></path>
                        <path d="M216.64383,54.960844 C219.43383,53.750844 222.05383,54.550844 223.23383,57.030844 C223.25383,57.080844 223.27383,57.120844 223.29383,57.170844 C223.46383,57.530844 223.38383,57.740844 222.91383,57.960844 C220.48383,59.090844 218.02383,60.170844 215.55383,61.180844 C215.59383,61.290844 215.66383,61.380844 215.72383,61.480844 C216.58383,62.750844 218.30383,63.110844 220.10383,62.330844 C221.87383,61.560844 222.46383,60.510844 222.63383,59.530844 C222.66383,59.480844 223.76383,59.150844 224.10383,59.870844 C224.27383,60.230844 224.11383,60.870844 223.55383,61.590844 C222.99383,62.310844 222.04383,63.090844 220.64383,63.700844 C217.40383,65.110844 214.49383,64.180844 213.44383,61.530844 C212.42383,58.950844 213.78383,56.190844 216.62383,54.960844 L216.64383,54.960844 Z M217.19383,56.280844 C215.59383,56.980844 214.76383,58.490844 215.09383,60.000844 C217.08383,59.180844 219.06383,58.320844 221.03383,57.430844 C220.27383,56.040844 218.82383,55.580844 217.20383,56.280844 L217.19383,56.280844 Z" id="Shape"></path>
                        <path d="M228.02383,58.790844 C226.53383,55.770844 225.04383,52.760844 223.54383,49.740844 C223.25383,49.140844 223.48383,48.540844 224.12383,48.220844 C225.50383,47.530844 226.87383,46.820844 228.23383,46.080844 C230.93383,44.630844 232.94383,44.750844 233.97383,46.540844 C234.63383,47.690844 234.30383,48.920844 233.04383,50.090844 C235.13383,49.410844 236.57383,49.900844 237.30383,51.150844 C238.45383,53.130844 237.48383,55.050844 234.00383,56.930844 C232.55383,57.710844 231.10383,58.460844 229.64383,59.190844 C228.95383,59.530844 228.30383,59.370844 228.01383,58.770844 L228.02383,58.790844 Z M230.51383,50.950844 C232.02383,50.140844 232.59383,48.950844 232.01383,47.920844 C231.42383,46.860844 230.31383,46.760844 228.68383,47.630844 C227.70383,48.150844 226.73383,48.660844 225.74383,49.160844 C226.31383,50.280844 226.89383,51.410844 227.46383,52.530844 C228.48383,52.010844 229.49383,51.480844 230.50383,50.940844 L230.51383,50.950844 Z M233.12383,55.630844 C235.24383,54.490844 235.82383,53.480844 235.12383,52.240844 C234.49383,51.110844 233.22383,51.090844 231.31383,52.110844 C230.25383,52.680844 229.18383,53.240844 228.11383,53.790844 C228.71383,54.960844 229.31383,56.140844 229.91383,57.310844 C230.99383,56.760844 232.06383,56.200844 233.12383,55.630844 L233.12383,55.630844 Z" id="Shape"></path>
                        <path d="M245.52383,53.990844 C245.41383,52.600844 245.29383,51.220844 245.16383,49.840844 C244.71383,50.080844 244.40383,50.140844 244.04383,49.910844 C241.55383,48.460844 239.11383,46.970844 236.71383,45.440844 C236.61383,45.360844 236.81383,44.740844 237.42383,44.370844 C237.95383,44.050844 238.44383,44.040844 239.18383,44.540844 C241.11383,45.820844 243.07383,47.080844 245.05383,48.310844 C244.68383,46.070844 244.28383,43.830844 243.85383,41.610844 C243.65383,40.740844 243.92383,40.250844 244.40383,39.920844 C244.90383,39.580844 245.64383,39.590844 245.66383,39.690844 C246.39383,43.790844 247.01383,47.930844 247.53383,52.100844 C247.65383,52.990844 247.32383,53.470844 246.86383,53.770844 C246.29383,54.130844 245.54383,54.100844 245.53383,53.990844 L245.52383,53.990844 Z" id="Path"></path>
                        <path d="M251.59383,34.660844 C254.09383,32.780844 256.88383,32.930844 258.59383,35.070844 C258.62383,35.110844 258.65383,35.150844 258.68383,35.190844 C258.93383,35.500844 258.89383,35.730844 258.47383,36.060844 C256.30383,37.770844 254.10383,39.430844 251.87383,41.030844 C251.94383,41.120844 252.02383,41.200844 252.11383,41.280844 C253.24383,42.310844 255.03383,42.250844 256.64383,41.040844 C258.23383,39.850844 258.58383,38.670844 258.54383,37.670844 C258.55383,37.610844 259.58383,37.020844 260.08383,37.640844 C260.33383,37.950844 260.31383,38.620844 259.91383,39.470844 C259.51383,40.310844 258.74383,41.320844 257.49383,42.260844 C254.58383,44.440844 251.49383,44.230844 249.87383,41.890844 C248.29383,39.600844 249.03383,36.580844 251.58383,34.670844 L251.59383,34.660844 Z M252.42383,35.820844 C250.98383,36.890844 250.49383,38.580844 251.15383,39.980844 C252.95383,38.690844 254.72383,37.360844 256.48383,36.000844 C255.42383,34.820844 253.88383,34.730844 252.42383,35.820844 Z" id="Shape"></path>
                        <path d="M263.73383,35.610844 C261.59383,33.020844 259.44383,30.420844 257.30383,27.830844 C256.88383,27.320844 256.98383,26.670844 257.54383,26.190844 C258.76383,25.160844 259.97383,24.120844 261.16383,23.050844 C263.53383,20.940844 265.55383,20.540844 266.98383,22.050844 C267.89383,23.020844 267.83383,24.310844 266.83383,25.790844 C268.76383,24.580844 270.31383,24.700844 271.30383,25.750844 C272.88383,27.410844 272.33383,29.560844 269.28383,32.280844 C268.01383,33.410844 266.73383,34.520844 265.44383,35.610844 C264.83383,36.120844 264.15383,36.120844 263.73383,35.610844 L263.73383,35.610844 Z M264.49383,27.260844 C265.81383,26.090844 266.12383,24.760844 265.32383,23.890844 C264.50383,22.990844 263.37383,23.180844 261.95383,24.450844 C261.09383,25.210844 260.23383,25.960844 259.36383,26.700844 C260.18383,27.660844 260.99383,28.620844 261.81383,29.580844 C262.71383,28.810844 263.60383,28.040844 264.49383,27.250844 L264.49383,27.260844 Z M268.11383,31.210844 C269.97383,29.550844 270.32383,28.400844 269.36383,27.360844 C268.48383,26.410844 267.22383,26.710844 265.55383,28.200844 C264.62383,29.030844 263.68383,29.850844 262.73383,30.660844 C263.58383,31.660844 264.44383,32.670844 265.29383,33.670844 C266.24383,32.860844 267.18383,32.040844 268.12383,31.210844 L268.11383,31.210844 Z" id="Shape"></path>
                        <path d="M280.10383,26.410844 C279.69383,25.070844 279.27383,23.730844 278.84383,22.400844 C278.44383,22.760844 278.15383,22.890844 277.74383,22.760844 C274.95383,21.970844 272.19383,21.130844 269.46383,20.240844 C269.35383,20.190844 269.41383,19.520844 269.94383,19.000844 C270.40383,18.540844 270.89383,18.410844 271.73383,18.720844 C273.93383,19.490844 276.15383,20.220844 278.40383,20.920844 C277.54383,18.800844 276.66383,16.690844 275.75383,14.600844 C275.36383,13.790844 275.52383,13.230844 275.93383,12.780844 C276.36383,12.310844 277.09383,12.120844 277.13383,12.220844 C278.74383,16.090844 280.26383,20.030844 281.69383,24.020844 C282.00383,24.870844 281.78383,25.430844 281.38383,25.840844 C280.89383,26.340844 280.14383,26.510844 280.11383,26.400844 L280.10383,26.410844 Z" id="Path"></path>
                        <path d="M281.96383,5.65084404 C284.05383,3.11084404 286.86383,2.50084404 289.03383,4.16084404 C289.07383,4.19084404 289.11383,4.22084404 289.15383,4.25084404 C289.46383,4.49084404 289.48383,4.73084404 289.13383,5.17084404 C287.33383,7.47084404 285.50383,9.71084404 283.62383,11.890844 C283.71383,11.960844 283.81383,12.020844 283.91383,12.080844 C285.27383,12.800844 287.03383,12.270844 288.38383,10.630844 C289.71383,9.01084404 289.81383,7.75084404 289.55383,6.76084404 C289.55383,6.70084404 290.45383,5.83084404 291.08383,6.32084404 C291.40383,6.57084404 291.52383,7.23084404 291.31383,8.18084404 C291.09383,9.13084404 290.55383,10.340844 289.49383,11.610844 C287.06383,14.560844 283.93383,15.170844 281.81383,13.280844 C279.74383,11.430844 279.82383,8.23084404 281.96383,5.64084404 L281.96383,5.65084404 Z M283.04383,6.58084404 C281.84383,8.04084404 281.71383,9.84084404 282.67383,11.060844 C284.18383,9.30084404 285.67383,7.50084404 287.13383,5.67084404 C285.82383,4.79084404 284.26383,5.11084404 283.04383,6.58084404 Z" id="Shape"></path>
                    </g>
                    <g fill="#D3D1CB">
                        <path d="M16.48,76.19 C15.51,76.34 14.53,76.51 13.56,76.68 C16.19,79.1 18.83,81.51 21.46,83.93 C22.19,83.24 22.93,82.57 23.66,81.9 C24.46,83.83 25.27,85.75 26.11,87.65 C23.19,90.24 20.37,92.28 17.95,93.65 C13.92,90.31 9.89,86.97 5.85,83.62 C5.04,84.42 4.24,85.24 3.44,86.06 C2.28,84.41 1.13,82.75 -4.4408921e-16,81.08 C2.2,78.38 4.45,75.75 6.74,73.19 C6.33,72.51 5.92,71.83 5.52,71.15 C8.03,69.45 10.63,68.34 13.03,67.75 C14.14,70.59 15.29,73.41 16.48,76.19 L16.48,76.19 Z" id="Path"></path>
                        <path d="M10.85,64.59 C13.68,61.83 16.87,59.83 18.65,59.07 C19.98,60.49 21.31,61.92 22.64,63.34 C22.47,62.46 22.3,61.58 22.14,60.7 C24.59,58.91 28.59,57.08 30.55,56.69 C33.68,60.4 36.81,64.11 39.94,67.81 C40.44,67.47 40.94,67.14 41.44,66.81 C41.85,68.36 42.27,69.91 42.7,71.45 C40.45,73.22 37.12,75.21 35.4,75.69 C34.99,75.25 34.58,74.8 34.17,74.36 C34.59,75.56 35.02,76.76 35.46,77.95 C33.59,79.48 30.23,81.55 28.29,82.14 C23.46,77.42 18.62,72.7 13.79,67.98 C13.34,68.35 12.89,68.72 12.45,69.09 C11.91,67.6 11.38,66.1 10.87,64.6 L10.85,64.59 Z M32.87,74.3 C33.08,74.16 33.29,74.03 33.5,73.89 C30.72,70.89 27.94,67.89 25.15,64.88 C24.93,65.03 24.71,65.17 24.48,65.32 C27.27,68.31 30.07,71.3 32.86,74.3 L32.87,74.3 Z" id="Shape"></path>
                        <path d="M57.41,60.14 C55.01,61.63 52.11,62.99 50.3,63.36 C50.39,63.9 50.48,64.44 50.57,64.97 C48.09,66.52 45.19,67.68 43.71,67.91 C42.18,65.85 40.65,63.79 39.12,61.72 C39.53,61.23 39.94,60.74 40.35,60.25 C37.89,58.38 35.4,56.53 32.88,54.7 C33.98,52.78 35.12,50.87 36.3,48.98 C39.54,46.75 44.21,44.78 46.76,44.24 C49.51,48.24 52.26,52.24 55.01,56.24 C55.53,55.96 56.05,55.68 56.58,55.41 C56.84,56.99 57.11,58.56 57.4,60.13 L57.41,60.14 Z M40.12,51.89 C41.2,53.66 42.28,55.42 43.36,57.18 C43.67,56.83 43.98,56.48 44.3,56.13 C43.14,54.59 41.98,53.05 40.82,51.52 C40.59,51.64 40.36,51.76 40.12,51.88 L40.12,51.89 Z M47.64,61.77 C47.86,61.66 48.08,61.55 48.3,61.43 C47.49,60.36 46.68,59.29 45.87,58.21 C45.74,58.45 45.61,58.68 45.48,58.92 C46.2,59.87 46.92,60.81 47.64,61.76 L47.64,61.77 Z" id="Shape"></path>
                        <path d="M74.64,49.57 C72.14,50.8 68.58,51.98 66.84,52.07 C66.53,51.55 66.22,51.03 65.91,50.51 C66.09,51.76 66.28,53.01 66.47,54.26 C64.39,55.32 60.79,56.57 58.83,56.7 C56.2,52.74 53.56,48.78 50.93,44.82 C50.58,44.98 50.22,45.14 49.87,45.3 C49.48,43.61 49.11,41.91 48.75,40.21 C51.11,38.96 54.39,37.91 56.49,37.57 C56.41,36.74 56.33,35.92 56.25,35.09 C59.01,33.69 63.35,32.61 65.77,32.63 C68.07,36.9 70.38,41.18 72.68,45.45 C73.22,45.23 73.76,45.02 74.31,44.81 C74.41,46.4 74.52,47.99 74.64,49.58 L74.64,49.57 Z M64.68,50.17 C64.91,50.08 65.13,50 65.36,49.91 C63.26,46.4 61.15,42.88 59.05,39.37 C58.81,39.46 58.57,39.56 58.33,39.65 C60.45,43.16 62.56,46.66 64.68,50.17 L64.68,50.17 Z" id="Shape"></path>
                        <path d="M65.33,24.2 C68.7,22.56 72.21,21.74 74.07,21.61 C75.95,25.65 77.83,29.69 79.71,33.73 C79.85,33.51 79.99,33.29 80.12,33.07 C79.04,30.14 77.97,27.2 76.9,24.26 C79.54,23.34 82.96,23.06 85.36,23.37 C85.81,25.6 86.27,27.83 86.74,30.05 C86.51,30.31 86.28,30.58 86.05,30.84 C88.4,32.6 90.71,34.39 92.96,36.22 C92.43,38.04 91.94,39.86 91.47,41.68 C89.42,42.32 87.28,42.8 86.24,42.84 C85.74,42.09 85.25,41.33 84.75,40.58 C84.85,41.84 84.96,43.1 85.08,44.35 C81.6,45.7 78.57,46.36 76.43,46.31 C73.31,40.31 70.2,34.32 67.08,28.32 C66.56,28.51 66.05,28.71 65.53,28.91 C65.45,27.34 65.39,25.78 65.33,24.2 L65.33,24.2 Z M82.54,39.81 C82.93,39.7 83.31,39.6 83.7,39.49 C82.87,38.63 82.04,37.78 81.2,36.93 C81.65,37.89 82.09,38.85 82.54,39.8 L82.54,39.81 Z" id="Shape"></path>
                        <path d="M115.37,32.25 C115.74,34.13 116.11,36.02 116.49,37.9 C113.77,38.48 110.26,38.76 108.18,38.53 C108.18,37.36 108.21,36.19 108.23,35.02 C106.76,35.06 104.96,34.94 103.72,34.77 C101.76,30.44 99.76,26.12 97.72,21.81 C97.37,21.85 97.02,21.89 96.66,21.93 C96.7,20.19 96.75,18.45 96.82,16.71 C99.38,16.05 102.98,15.93 105.06,16.18 C106.17,15 107.3,13.84 108.44,12.68 C109.82,12.88 112.07,13.66 113.12,14.25 C113.82,16.72 114.51,19.19 115.21,21.66 C115.21,25.2 115.27,28.73 115.36,32.26 L115.37,32.25 Z M110.16,30.48 C110.31,30.48 110.45,30.46 110.6,30.46 C109.58,26.55 108.56,22.64 107.55,18.73 C107.14,18.71 106.74,18.69 106.33,18.67 C107.62,22.61 108.9,26.54 110.17,30.48 L110.16,30.48 Z" id="Shape"></path>
                        <path d="M130.13,30.22 C125.83,30.66 122.12,30.59 120,30.14 C119.51,27.27 119.04,24.4 118.57,21.52 C117.73,18.86 116.87,16.2 116.01,13.54 C117.99,12.19 120.01,10.87 122.06,9.58 C126.1,9.07 129.96,9.35 133.54,10.19 C133.76,13.09 133.99,16 134.23,18.9 C134.86,21.62 135.48,24.34 136.09,27.07 C134.08,28.09 132.09,29.14 130.14,30.22 L130.13,30.22 Z M127.33,26.11 C127.57,26.11 127.8,26.11 128.04,26.11 C127.28,22.1 126.51,18.09 125.75,14.08 C125.5,14.08 125.25,14.08 125,14.08 C125.78,18.09 126.56,22.1 127.33,26.1 L127.33,26.11 Z" id="Shape"></path>
                        <path d="M155.55,27.27 C153.32,27.16 149.68,26.55 148.13,25.92 C147.9,26.63 147.67,27.35 147.44,28.07 C144.49,28.02 140.66,27.51 138.7,26.71 C138.07,22.03 137.44,17.35 136.82,12.68 C136.4,12.65 135.98,12.62 135.56,12.58 C135.93,10.88 136.32,9.19 136.72,7.5 C139.46,7.33 143.24,7.83 145.21,8.46 C145.26,9.03 145.31,9.6 145.37,10.17 C145.81,8.87 146.25,7.57 146.71,6.28 C149.22,6.36 153.44,7.37 154.96,8.18 C155.17,13.03 155.38,17.87 155.59,22.72 C156.16,22.76 156.73,22.81 157.3,22.85 C156.71,24.32 156.13,25.8 155.56,27.28 L155.55,27.27 Z M145.45,11.21 C145.82,15.29 146.19,19.36 146.56,23.44 C146.79,23.46 147.03,23.49 147.26,23.51 C146.9,19.43 146.55,15.36 146.19,11.28 C145.94,11.26 145.69,11.23 145.44,11.21 L145.45,11.21 Z" id="Shape"></path>
                        <path d="M171.31,0.01 C173.59,0.41 176.78,1.44 178.43,2.32 C177.71,3.99 177.01,5.67 176.33,7.35 C176.62,7.37 176.91,7.39 177.21,7.4 C177.07,9.62 176.93,11.84 176.78,14.05 C176.04,14 175.3,13.96 174.56,13.92 C175.11,15.55 175.64,17.18 176.16,18.81 C176.02,21.01 175.89,23.2 175.75,25.4 C174.94,27.5 174.16,29.6 173.4,31.71 C171.65,31.51 167.87,30.47 166.65,29.8 C166.73,24.31 166.81,18.82 166.89,13.33 C166.22,13.13 165.54,12.94 164.87,12.75 C165.61,11.16 166.36,9.57 167.14,7.99 C167.42,7.86 167.7,7.74 167.98,7.61 C167.45,5.76 166.9,3.92 166.33,2.07 C167.98,1.36 169.64,0.67 171.32,2.22044605e-15 L171.31,0.01 Z M172.4,7.15 C173.05,7.18 173.71,7.21 174.36,7.24 C173.6,6.55 172.83,5.87 172.06,5.19 C172.18,5.84 172.29,6.5 172.4,7.15 Z" id="Shape"></path>
                        <path d="M188.23,28.75 C184.01,27.87 180.51,26.67 178.63,25.6 C179.05,22.72 179.47,19.84 179.9,16.96 C179.91,14.17 179.92,11.38 179.9,8.58 C182.19,7.9 184.51,7.25 186.85,6.64 C190.84,7.37 194.44,8.81 197.59,10.7 C196.91,13.53 196.24,16.37 195.58,19.2 C195.35,21.98 195.1,24.76 194.85,27.54 C192.62,27.9 190.41,28.3 188.22,28.74 L188.23,28.75 Z M186.82,23.99 C187.04,24.06 187.27,24.13 187.49,24.2 C187.99,20.15 188.49,16.1 188.99,12.05 C188.75,11.98 188.51,11.9 188.27,11.83 C187.78,15.88 187.3,19.94 186.81,23.99 L186.82,23.99 Z" id="Shape"></path>
                        <path d="M198.8,13.55 C199.67,12.06 200.56,10.57 201.46,9.09 C203.14,9.76 205.14,10.93 206.36,11.82 C206.69,11.15 207.01,10.47 207.34,9.8 C210.16,10.96 212.79,13.08 214.06,15.17 C213.04,16.57 212.03,17.98 211.03,19.39 C210.39,19.75 209.75,20.1 209.11,20.47 C208.11,19.18 207.1,17.89 206.06,16.62 C205.99,16.82 205.92,17.02 205.85,17.22 C206.42,18.07 206.98,18.92 207.53,19.78 C206.98,22.23 206.43,24.68 205.89,27.13 C206.47,27.36 207.06,27.6 207.64,27.83 C206.72,29.1 205.81,30.37 204.92,31.65 C202.17,30.76 198.92,29.23 197.35,27.98 C198.19,23.3 199.03,18.62 199.86,13.94 C199.51,13.81 199.15,13.68 198.8,13.55 Z" id="Path"></path>
                        <path d="M221.81,24.95 C222.4,22.2 222.98,19.44 223.54,16.68 C225.82,16.52 228.11,16.41 230.42,16.33 C233.37,17.8 235.43,19.36 237.45,21.39 C236.25,22.94 235.06,24.49 233.88,26.05 C233.13,26.27 232.39,26.49 231.64,26.71 C230.75,25.1 229.83,23.5 228.89,21.91 C228.8,22.1 228.7,22.29 228.61,22.48 C229.12,23.53 229.63,24.59 230.12,25.65 C229.29,28.02 228.46,30.39 227.63,32.76 C229.2,33.46 230.75,34.18 232.3,34.91 C231.37,35.86 230.44,36.82 229.52,37.78 C228.06,37.73 226.61,37.71 225.17,37.7 C222.73,36.4 219.79,34.33 218.61,33.02 C219.66,30.33 220.73,27.63 221.8,24.95 L221.81,24.95 Z" id="Path"></path>
                        <path d="M241.12,43.7 C237.27,41.6 234.23,39.43 232.72,37.86 C233.95,35.22 235.2,32.59 236.45,29.96 C237.27,27.29 238.08,24.62 238.88,21.94 C241.3,21.96 243.73,22.02 246.18,22.13 C249.84,24.01 252.92,26.46 255.43,29.21 C253.95,31.72 252.49,34.24 251.02,36.76 C249.99,39.36 248.95,41.95 247.91,44.54 C245.64,44.22 243.38,43.94 241.12,43.71 L241.12,43.7 Z M241.13,38.72 C241.33,38.85 241.53,38.99 241.72,39.13 C243.37,35.4 245.03,31.66 246.69,27.93 C246.48,27.79 246.27,27.65 246.06,27.51 C244.42,31.25 242.78,34.99 241.14,38.73 L241.13,38.72 Z" id="Shape"></path>
                        <path d="M275.86,58.64 C274.47,59.43 273.09,60.23 271.72,61.04 C269.48,59.33 266.79,56.65 265.94,55.13 C266.16,54.75 266.37,54.36 266.59,53.97 C265.71,54.59 264.83,55.22 263.95,55.85 C261.64,54.26 259.02,51.83 258.1,50.36 C258.4,49.83 258.7,49.31 259,48.78 C258,49.55 257,50.33 256.01,51.11 C254.08,49.82 251.25,47.31 250.2,45.67 C252.36,41.43 254.53,37.2 256.69,32.96 C256.38,32.73 256.08,32.5 255.77,32.27 C257.05,31.1 258.34,29.94 259.64,28.79 C261.86,30.22 264.35,32.56 265.67,34.22 C266.35,33.74 267.03,33.27 267.71,32.8 C270.04,34.39 272.85,37.28 274.21,39.4 C274.94,38.95 275.66,38.5 276.4,38.05 C278.89,39.9 281.83,43.33 282.92,45.53 C280.13,49.5 277.33,53.47 274.54,57.44 C274.98,57.83 275.43,58.23 275.87,58.63 L275.86,58.64 Z M258.7,47.56 C258.89,47.72 259.07,47.87 259.26,48.03 C261.29,44.48 263.33,40.92 265.36,37.37 C265.16,37.21 264.96,37.04 264.77,36.88 C262.75,40.44 260.73,44 258.71,47.57 L258.7,47.56 Z M273.25,41.97 C271.05,45.45 268.84,48.93 266.64,52.4 C266.82,52.56 267.01,52.71 267.19,52.87 C269.4,49.41 271.61,45.95 273.82,42.49 C273.63,42.32 273.44,42.14 273.25,41.97 L273.25,41.97 Z" id="Shape"></path>
                        <path d="M283.76,64.39 C284.18,64.81 284.61,65.24 285.03,65.67 C283.59,66.37 282.16,67.08 280.74,67.81 C279,66.19 276.26,63 275.45,61.19 C278.25,57.34 281.04,53.5 283.84,49.65 C283.57,49.37 283.29,49.09 283.02,48.81 C284.47,47.86 285.94,46.93 287.41,46 C289.64,48 291.86,50.89 292.97,52.85 C289.9,56.7 286.83,60.54 283.77,64.39 L283.76,64.39 Z M293.13,49.74 C291.62,48.18 290.08,46.65 288.52,45.15 C289.37,44 290.22,42.84 291.06,41.69 C293.36,43.67 295.28,46.21 296.17,48.11 C295.15,48.65 294.14,49.19 293.13,49.74 L293.13,49.74 Z" id="Shape"></path>
                        <path d="M296.25,81.68 C294.27,79.54 292,76.37 291.38,74.69 C291.79,74.24 292.2,73.79 292.6,73.35 C291.44,73.87 290.29,74.4 289.14,74.94 C287.47,73.2 285.17,70.06 284.46,68.2 C287.48,64.53 290.5,60.86 293.53,57.19 C293.27,56.89 293.01,56.59 292.75,56.3 C294.26,55.45 295.78,54.6 297.32,53.78 C299.23,55.71 301.25,58.61 302.22,60.56 C302.99,60.25 303.77,59.94 304.55,59.64 C306.75,61.95 309.17,65.93 309.91,68.33 C306.48,71.76 303.05,75.2 299.63,78.63 C300.01,79.11 300.4,79.59 300.77,80.07 C299.25,80.59 297.74,81.13 296.24,81.68 L296.25,81.68 Z M292.56,72.06 C292.71,72.26 292.87,72.46 293.02,72.66 C295.77,69.63 298.53,66.6 301.28,63.57 C301.12,63.36 300.95,63.15 300.79,62.94 C298.05,65.98 295.31,69.02 292.56,72.06 L292.56,72.06 Z" id="Shape"></path>
                        <path d="M302.72,80.27 C303.73,80.87 304.73,81.48 305.73,82.11 C305.21,80.92 304.63,79.31 304.41,78.27 C307.02,75.74 309.62,73.21 312.23,70.68 C314.19,71.52 316.16,72.41 318.12,73.33 C318.97,74.35 320.17,76.1 320.75,77.11 C322.07,76.2 323.39,75.29 324.72,74.38 C326.16,76.42 327.69,79.86 328.06,81.85 C327.15,82.28 326.25,82.72 325.34,83.16 C324.6,82.55 323.86,81.95 323.12,81.35 C323.64,82.47 324.15,83.59 324.65,84.72 C321.41,86.69 318.18,88.69 314.97,90.71 C313.78,89.78 312.59,88.87 311.39,87.98 C312.43,89.98 313.43,92.01 314.4,94.04 C312.73,95.38 311.05,96.72 309.38,98.06 C307.03,96.83 304.68,95.68 302.32,94.59 C300.68,92.29 297.88,86.97 297.16,84.61 C299.01,83.15 300.86,81.69 302.72,80.24 L302.72,80.27 Z M303.48,86.14 C304.28,88.16 305.05,90.18 305.79,92.21 C306.02,92.02 306.24,91.82 306.47,91.63 C305.65,89.66 304.79,87.7 303.9,85.76 C303.76,85.89 303.62,86.01 303.49,86.14 L303.48,86.14 Z M310.87,83.49 C310.99,83.71 311.11,83.93 311.23,84.15 C313.14,82.56 315.05,80.96 316.96,79.37 C316.8,79.07 316.64,78.78 316.48,78.48 C314.61,80.15 312.74,81.82 310.87,83.49 Z" id="Shape"></path>
                    </g>
                </g>
            </g>
        </g>
    </g>
</svg>