<?xml version="1.0" encoding="UTF-8"?>
<svg width="547px" height="323px" viewBox="0 0 547 323" version="1.1" xmlns="http://www.w3.org/2000/svg" xmlns:xlink="http://www.w3.org/1999/xlink">
    <title>header nav_1</title>
    <g id="Page-1" stroke="none" stroke-width="1" fill="none" fill-rule="evenodd">
        <g id="Large-Devices:-Desktops---12-col" transform="translate(-239.000000, -204.000000)">
            <g id="header" transform="translate(0.000000, -0.000000)">
                <g id="header-nav_1" transform="translate(239.000000, 204.000000)">
                    <g id="Group" fill-rule="nonzero">
                        <g transform="translate(43.460000, 54.230000)">
                            <path d="M463.03,113.01 C453.5,125.22 371.99,226.02 231.52,226.02 C91.05,226.02 9.53,125.22 -3.55271368e-14,113.01 C9.53,100.8 91.04,-1.42108547e-14 231.51,-1.42108547e-14 C371.98,-1.42108547e-14 453.49,100.79 463.02,113.01 L463.03,113.01 Z" id="Path" fill="#FFFFFF"></path>
                            <circle id="Oval" fill="#4B192B" cx="231.52" cy="113.01" r="90.55"></circle>
                        </g>
                        <g transform="translate(27.657077, 175.998396)" fill="#D3D1CB">
                            <path d="M0.572922535,10.6516043 C5.00292254,7.21160429 9.43292254,3.77160429 13.8729225,0.341604286 C14.6129225,-0.228395714 15.3329225,-0.0783957141 15.9729225,0.741604286 C16.0929225,0.891604286 16.2029225,1.03160429 16.3229225,1.18160429 C17.0129225,2.06160429 16.9829225,2.79160429 16.2629225,3.37160429 C14.4229225,4.83160429 12.5829225,6.30160429 10.7529225,7.76160429 C13.4629225,11.1716043 16.2329225,14.4916043 19.0429225,17.7516043 C20.8129225,16.2116043 22.5929225,14.6716043 24.3629225,13.1316043 C25.0629225,12.5216043 25.7929225,12.6216043 26.4629225,13.4016043 C26.5829225,13.5416043 26.7029225,13.6816043 26.8229225,13.8116043 C27.5529225,14.6416043 27.5629225,15.3716043 26.8629225,15.9916043 C22.6729225,19.7216043 18.4929225,23.4616043 14.3029225,27.1916043 C13.6129225,27.8116043 12.8629225,27.6916043 12.0829225,26.8116043 C11.9529225,26.6616043 11.8229225,26.5216043 11.6929225,26.3716043 C10.9729225,25.5416043 10.9429225,24.7816043 11.6529225,24.1716043 C13.4329225,22.6216043 15.2129225,21.0716043 16.9929225,19.5316043 C14.1529225,16.2516043 11.3629225,12.8916043 8.62292254,9.45160429 C6.77292254,10.9216043 4.93292254,12.3916043 3.08292254,13.8616043 C2.35292254,14.4416043 1.61292254,14.2716043 0.872922535,13.3416043 C0.752922535,13.1816043 0.622922535,13.0316043 0.502922535,12.8716043 C-0.187077465,11.9916043 -0.167077465,11.2316043 0.562922535,10.6616043 L0.572922535,10.6516043 Z" id="Path"></path>
                            <path d="M34.7229225,29.2816043 C38.5029225,33.1316043 39.0729225,38.0416043 36.0229225,41.2716043 C33.0029225,44.4716043 27.9229225,44.0116043 23.8929225,39.9116043 C19.8429225,35.7816043 19.4429225,30.6616043 22.7329225,27.6416043 C25.9829225,24.6516043 30.8929225,25.3716043 34.7229225,29.2816043 L34.7229225,29.2816043 Z M32.9629225,30.9616043 C30.5729225,28.5316043 27.2429225,28.1316043 25.0829225,30.1716043 C22.9229225,32.2016043 23.1329225,35.6816043 25.6129225,38.2116043 C28.0929225,40.7416043 31.4829225,40.9816043 33.5329225,38.8716043 C35.6229225,36.7116043 35.3729225,33.4216043 32.9629225,30.9616043 Z" id="Shape"></path>
                            <path d="M52.0829225,48.1516043 C51.3429225,49.0216043 50.2729225,48.6916043 50.2529225,48.5916043 C50.0729225,47.9616043 49.7229225,47.3016043 48.9829225,46.6516043 C46.8429225,44.7716043 44.4829225,45.6916043 42.2529225,48.1716043 C41.1229225,49.4316043 39.9929225,50.6916043 38.8629225,51.9416043 C38.1429225,52.7416043 37.3829225,52.5016043 36.6729225,51.8616043 C36.5729225,51.7716043 36.4629225,51.6716043 36.3629225,51.5816043 C35.6329225,50.9116043 35.3429225,50.2016043 36.0829225,49.4016043 C39.0029225,46.2216043 41.9329225,43.0416043 44.8529225,39.8616043 C44.9129225,39.7916043 45.5029225,40.0116043 46.0429225,40.5116043 C46.6629225,41.0816043 47.1329225,41.9116043 46.6429225,43.0016043 C46.4929225,43.2716043 46.3129225,43.5916043 46.0329225,43.9016043 C47.7929225,43.1016043 49.5029225,43.3616043 51.1729225,44.8116043 C52.5329225,46.0016043 52.8629225,47.2316043 52.0829225,48.1516043 L52.0829225,48.1516043 Z" id="Path"></path>
                            <path d="M61.1129225,60.9516043 C61.2429225,61.0516043 61.3629225,61.1416043 61.4929225,61.2416043 C61.5529225,61.1616043 61.6129225,61.0816043 61.6729225,61.0016043 C63.0029225,59.2616043 62.5329225,57.3916043 60.3529225,55.6516043 C58.2829225,54.0016043 56.3629225,53.8916043 54.9029225,54.4016043 C54.8829225,54.4316043 53.1829225,52.9716043 54.1029225,51.8616043 C54.4529225,51.4416043 55.1829225,51.2016043 56.1729225,51.2416043 C57.6729225,51.3116043 59.7529225,52.0616043 62.0629225,53.9016043 C65.8829225,56.9316043 66.7529225,60.1816043 64.5529225,63.1216043 C62.7829225,65.4816043 61.0029225,67.8416043 59.2329225,70.2016043 C59.1429225,70.3216043 58.4929225,70.0616043 57.9529225,69.6516043 C57.1429225,69.0316043 56.7029225,68.2416043 57.0529225,67.3016043 C57.1529225,67.0416043 57.3029225,66.7316043 57.5429225,66.4216043 C55.4929225,66.8116043 53.0529225,66.0816043 50.9029225,64.3516043 C47.8629225,61.9016043 47.1629225,59.1316043 48.7429225,57.2516043 C50.8929225,54.6916043 54.7829225,56.1716043 61.1129225,60.9516043 L61.1129225,60.9516043 Z M60.3529225,62.7216043 C60.0829225,62.5316043 59.8129225,62.3316043 59.5529225,62.1316043 C55.3929225,59.0716043 52.8529225,57.9616043 51.6129225,59.4716043 C50.7929225,60.4716043 51.2729225,61.9116043 52.9429225,63.2516043 C55.4629225,65.2716043 58.2929225,65.4016043 59.6829225,63.5916043 C59.9129225,63.3016043 60.1329225,63.0016043 60.3629225,62.7116043 L60.3529225,62.7216043 Z" id="Shape"></path>
                            <path d="M78.0629225,58.4516043 C79.1129225,59.2016043 79.3329225,60.1616043 78.7229225,61.0516043 C78.1029225,61.9416043 77.1329225,62.0316043 76.0429225,61.2516043 C74.9729225,60.4916043 74.7329225,59.5016043 75.3529225,58.6516043 C75.9829225,57.7716043 76.9929225,57.6916043 78.0729225,58.4616043 L78.0629225,58.4516043 Z M72.1129225,63.6016043 C72.7429225,62.7216043 73.5029225,62.8316043 74.2629225,63.3716043 C74.3629225,63.4416043 74.4529225,63.5116043 74.5529225,63.5816043 C75.3129225,64.1216043 75.6429225,64.7616043 75.0029225,65.6716043 C72.7329225,68.9116043 70.4629225,72.1416043 68.1929225,75.3816043 C67.5729225,76.2616043 66.8329225,76.1516043 66.0429225,75.5816043 C65.9429225,75.5116043 65.8429225,75.4416043 65.7429225,75.3616043 C64.9529225,74.7916043 64.5629225,74.1116043 65.2029225,73.2316043 C67.5129225,70.0216043 69.8229225,66.8116043 72.1229225,63.6116043 L72.1129225,63.6016043 Z" id="Shape"></path>
                            <path d="M89.1729225,75.3616043 C88.5729225,76.3316043 87.4829225,76.1816043 87.4529225,76.0916043 C87.1929225,75.5016043 86.7629225,74.9116043 85.9429225,74.3916043 C83.6029225,72.8916043 81.4229225,74.1916043 79.6029225,76.9816043 C78.6829225,78.4016043 77.7529225,79.8116043 76.8329225,81.2316043 C76.2429225,82.1416043 75.4729225,82.0216043 74.6929225,81.5116043 C74.5829225,81.4316043 74.4629225,81.3616043 74.3529225,81.2816043 C73.5429225,80.7416043 73.1729225,80.0916043 73.7729225,79.2016043 C76.1829225,75.6116043 78.5829225,72.0216043 80.9929225,68.4316043 C81.0429225,68.3516043 81.6529225,68.4716043 82.2429225,68.8716043 C82.9229225,69.3216043 83.4929225,70.0616043 83.1729225,71.2116043 C83.0729225,71.5016043 82.9329225,71.8416043 82.7029225,72.1916043 C84.3029225,71.1216043 86.0129225,71.0916043 87.8329225,72.2416043 C89.3229225,73.1916043 89.8229225,74.3416043 89.1829225,75.3616043 L89.1729225,75.3616043 Z" id="Path"></path>
                            <path d="M99.7229225,79.4116043 C103.952923,81.8216043 105.422923,85.9116043 103.402923,89.7416043 C103.362923,89.8116043 103.322923,89.8816043 103.292923,89.9516043 C102.992923,90.5116043 102.662923,90.6016043 101.932923,90.2116043 C98.1729225,88.1816043 94.4529225,86.0816043 90.7729225,83.8816043 C90.6829225,84.0316043 90.6229225,84.2116043 90.5629225,84.3816043 C89.7829225,86.6816043 90.9829225,89.2116043 93.6929225,90.7516043 C96.3729225,92.2716043 98.2629225,92.0316043 99.6729225,91.3316043 C99.7629225,91.3116043 101.232923,92.4116043 100.632923,93.5216043 C100.332923,94.0716043 99.3729225,94.4816043 97.9229225,94.4416043 C96.4829225,94.4016043 94.5829225,93.9416043 92.4629225,92.7416043 C87.5629225,89.9516043 85.9229225,85.3616043 88.2829225,81.5316043 C90.5829225,77.7916043 95.4129225,76.9316043 99.7329225,79.4016043 L99.7229225,79.4116043 Z M98.5729225,81.3516043 C96.1429225,79.9716043 93.4129225,80.3316043 91.8129225,82.1716043 C94.7829225,83.9416043 97.7829225,85.6516043 100.792923,87.3116043 C101.832923,85.0416043 101.032923,82.7616043 98.5729225,81.3516043 Z" id="Shape"></path>
                            <path d="M134.172923,92.9316043 C134.582923,91.9616043 135.562923,91.6516043 136.692923,92.1216043 C136.972923,92.2416043 137.262923,92.3516043 137.542923,92.4716043 C138.812923,92.9816043 138.992923,93.5416043 139.092923,94.7716043 C139.452923,98.6216043 139.872923,102.481604 140.352923,106.351604 C143.272923,103.761604 146.142923,101.131604 148.952923,98.4616043 C149.852923,97.5716043 150.372923,97.3116043 151.602923,97.7316043 C151.872923,97.8216043 152.142923,97.9116043 152.412923,98.0116043 C153.602923,98.4216043 154.172923,99.3016043 153.832923,100.301604 L148.562923,115.971604 C148.262923,116.851604 147.662923,117.161604 146.632923,116.811604 C146.472923,116.761604 146.312923,116.701604 146.152923,116.651604 C145.152923,116.311604 144.902923,115.711604 145.212923,114.831604 C146.782923,110.341604 148.342923,105.861604 149.912923,101.371604 C147.292923,103.871604 144.632923,106.341604 141.922923,108.781604 C141.282923,109.381604 140.722923,109.751604 139.252923,109.201604 C137.742923,108.631604 137.632923,108.011604 137.512923,107.131604 C137.092923,103.551604 136.722923,99.9816043 136.402923,96.4116043 C134.632923,100.791604 132.872923,105.171604 131.102923,109.551604 C130.752923,110.411604 130.172923,110.701604 129.152923,110.281604 C128.972923,110.211604 128.792923,110.131604 128.612923,110.061604 C127.662923,109.671604 127.452923,109.061604 127.802923,108.201604 C129.922923,103.111604 132.042923,98.0216043 134.162923,92.9316043 L134.172923,92.9316043 Z" id="Path"></path>
                            <path d="M166.152923,107.251604 C170.752923,108.551604 173.092923,112.161604 172.032923,116.351604 C172.012923,116.431604 171.992923,116.501604 171.972923,116.581604 C171.812923,117.191604 171.512923,117.361604 170.722923,117.161604 C166.662923,116.111604 162.622923,114.981604 158.602923,113.761604 C158.552923,113.931604 158.532923,114.121604 158.512923,114.301604 C158.292923,116.711604 160.012923,118.861604 162.962923,119.701604 C165.872923,120.521604 167.622923,119.831604 168.822923,118.811604 C168.902923,118.771604 170.562923,119.481604 170.252923,120.701604 C170.092923,121.311604 169.262923,121.941604 167.872923,122.251604 C166.482923,122.571604 164.562923,122.581604 162.262923,121.931604 C156.942923,120.421604 154.332923,116.401604 155.702923,112.121604 C157.042923,107.941604 161.452923,105.931604 166.152923,107.251604 L166.152923,107.251604 Z M165.502923,109.401604 C162.862923,108.651604 160.342923,109.671604 159.232923,111.851604 C162.472923,112.831604 165.722923,113.761604 168.992923,114.631604 C169.462923,112.181604 168.172923,110.161604 165.502923,109.411604 L165.502923,109.401604 Z" id="Shape"></path>
                            <path d="M192.582923,119.761604 C192.132923,122.161604 191.692923,124.561604 191.242923,126.961604 C191.042923,128.021604 190.312923,128.221604 189.422923,128.051604 C189.292923,128.031604 189.162923,128.001604 189.032923,127.981604 C188.112923,127.801604 187.532923,127.351604 187.752923,126.301604 C188.202923,124.021604 188.652923,121.751604 189.102923,119.471604 C189.572923,117.081604 188.462923,115.341604 186.092923,114.851604 C183.952923,114.401604 182.112923,115.041604 180.952923,116.311604 C180.332923,119.031604 179.712923,121.751604 179.102923,124.471604 C178.862923,125.521604 178.122923,125.701604 177.242923,125.491604 C177.112923,125.461604 176.982923,125.431604 176.852923,125.401604 C175.942923,125.191604 175.382923,124.721604 175.632923,123.671604 C176.642923,119.471604 177.642923,115.271604 178.652923,111.061604 C178.672923,110.971604 179.262923,110.871604 179.932923,111.021604 C180.842923,111.231604 181.852923,111.891604 181.492923,113.781604 C182.982923,112.581604 184.982923,111.951604 187.442923,112.451604 C191.712923,113.321604 193.232923,116.231604 192.592923,119.751604 L192.582923,119.761604 Z" id="Path"></path>
                            <path d="M214.272923,118.401604 C213.782923,122.681604 213.292923,126.961604 212.802923,131.251604 C212.802923,131.341604 212.192923,131.511604 211.512923,131.431604 C210.652923,131.331604 209.792923,130.951604 209.572923,129.841604 C209.532923,129.561604 209.502923,129.261604 209.542923,128.901604 C208.152923,130.211604 206.152923,131.011604 203.512923,130.641604 C198.962923,129.981604 197.332923,127.071604 197.932923,123.531604 C198.332923,121.121604 198.732923,118.721604 199.132923,116.311604 C199.312923,115.241604 199.982923,114.991604 200.832923,115.131604 C200.952923,115.151604 201.082923,115.171604 201.202923,115.191604 C202.082923,115.331604 202.642923,115.751604 202.472923,116.851604 C202.122923,119.141604 201.762923,121.441604 201.412923,123.731604 C201.032923,126.191604 202.292923,127.881604 204.882923,128.241604 C207.012923,128.541604 208.812923,127.741604 209.882923,126.331604 C210.232923,123.561604 210.582923,120.791604 210.932923,118.021604 C211.072923,116.951604 211.722923,116.671604 212.582923,116.771604 C212.712923,116.781604 212.832923,116.801604 212.962923,116.811604 C213.852923,116.921604 214.422923,117.311604 214.302923,118.411604 L214.272923,118.401604 Z" id="Path"></path>
                            <path d="M243.672923,131.741604 C243.752923,126.421604 243.842923,121.101604 243.922923,115.781604 C243.942923,114.731604 244.692923,114.051604 245.802923,114.061604 C250.022923,114.101604 254.242923,114.061604 258.462923,113.911604 C259.542923,113.871604 260.102923,114.331604 260.132923,115.141604 C260.132923,115.201604 260.132923,115.261604 260.132923,115.321604 C260.162923,116.161604 259.642923,116.631604 258.552923,116.671604 C254.842923,116.791604 251.122923,116.841604 247.412923,116.831604 C247.412923,118.641604 247.392923,120.451604 247.392923,122.261604 C250.322923,122.271604 253.242923,122.241604 256.172923,122.171604 C257.312923,122.141604 257.852923,122.541604 257.872923,123.351604 C257.872923,123.381604 257.872923,123.411604 257.872923,123.441604 C257.902923,124.281604 257.352923,124.751604 256.232923,124.771604 C253.282923,124.841604 250.332923,124.871604 247.382923,124.861604 C247.382923,126.821604 247.362923,128.781604 247.362923,130.741604 C251.322923,130.761604 255.282923,130.701604 259.232923,130.571604 C260.372923,130.531604 260.922923,130.931604 260.952923,131.741604 C260.952923,131.791604 260.952923,131.841604 260.952923,131.891604 C260.982923,132.761604 260.462923,133.261604 259.312923,133.301604 C254.742923,133.451604 250.172923,133.511604 245.612923,133.461604 C244.422923,133.451604 243.642923,132.771604 243.662923,131.731604 L243.672923,131.741604 Z" id="Path"></path>
                            <path d="M264.022923,119.391604 C263.942923,119.211604 264.662923,118.491604 265.762923,118.431604 C266.722923,118.381604 267.362923,118.701604 268.032923,120.071604 C269.642923,123.371604 271.292923,126.651604 272.992923,129.921604 C274.212923,126.431604 275.382923,122.921604 276.502923,119.421604 C276.962923,117.961604 277.572923,117.541604 278.422923,117.461604 C279.482923,117.361604 280.312923,117.991604 280.252923,118.151604 C278.702923,122.651604 277.072923,127.151604 275.352923,131.631604 C275.082923,132.311604 274.392923,132.641604 273.242923,132.731604 C272.022923,132.821604 271.392923,132.661604 271.022923,132.021604 C268.602923,127.841604 266.262923,123.631604 264.012923,119.401604 L264.022923,119.391604 Z" id="Path"></path>
                            <path d="M291.592923,115.651604 C296.302923,114.981604 299.912923,117.321604 300.662923,121.581604 C300.672923,121.661604 300.692923,121.741604 300.702923,121.821604 C300.812923,122.441604 300.602923,122.721604 299.802923,122.851604 C295.682923,123.531604 291.542923,124.141604 287.402923,124.651604 C287.422923,124.831604 287.482923,125.001604 287.542923,125.181604 C288.322923,127.471604 290.762923,128.741604 293.782923,128.311604 C296.762923,127.881604 298.072923,126.541604 298.742923,125.131604 C298.802923,125.061604 300.602923,125.041604 300.812923,126.281604 C300.912923,126.901604 300.422923,127.811604 299.282923,128.661604 C298.152923,129.511604 296.402923,130.301604 294.052923,130.641604 C288.602923,131.421604 284.602923,128.801604 284.102923,124.331604 C283.622923,119.971604 286.792923,116.341604 291.602923,115.651604 L291.592923,115.651604 Z M291.882923,117.881604 C289.182923,118.271604 287.302923,120.221604 287.182923,122.651604 C290.522923,122.231604 293.852923,121.761604 297.182923,121.231604 C296.612923,118.801604 294.612923,117.481604 291.882923,117.871604 L291.882923,117.881604 Z" id="Shape"></path>
                            <path d="M320.802923,116.371604 C321.372923,118.741604 321.952923,121.111604 322.522923,123.491604 C322.772923,124.541604 322.182923,125.021604 321.302923,125.231604 C321.172923,125.261604 321.042923,125.291604 320.912923,125.321604 C320.002923,125.531604 319.292923,125.351604 319.052923,124.301604 C318.532923,122.041604 318.012923,119.781604 317.492923,117.521604 C316.942923,115.151604 315.222923,114.011604 312.852923,114.521604 C310.722923,114.981604 309.292923,116.301604 308.762923,117.941604 C309.312923,120.681604 309.862923,123.411604 310.412923,126.151604 C310.622923,127.211604 310.012923,127.671604 309.132923,127.841604 C309.002923,127.871604 308.872923,127.891604 308.742923,127.921604 C307.822923,128.101604 307.122923,127.891604 306.922923,126.831604 C306.122923,122.581604 305.322923,118.341604 304.522923,114.091604 C304.502923,114.001604 305.002923,113.671604 305.682923,113.541604 C306.592923,113.371604 307.792923,113.561604 308.232923,115.431604 C309.092923,113.731604 310.672923,112.341604 313.122923,111.811604 C317.382923,110.881604 319.972923,112.921604 320.822923,116.391604 L320.802923,116.371604 Z" id="Path"></path>
                            <path d="M332.312923,106.941604 C336.902923,105.621604 340.822923,107.441604 342.152923,111.551604 C342.172923,111.631604 342.202923,111.701604 342.222923,111.781604 C342.412923,112.381604 342.252923,112.681604 341.472923,112.931604 C337.462923,114.181604 333.432923,115.351604 329.382923,116.441604 C329.432923,116.611604 329.512923,116.781604 329.592923,116.941604 C330.682923,119.101604 333.292923,120.021604 336.232923,119.171604 C339.142923,118.331604 340.262923,116.821604 340.732923,115.321604 C340.782923,115.241604 342.572923,114.971604 342.952923,116.171604 C343.142923,116.771604 342.772923,117.741604 341.752923,118.741604 C340.742923,119.741604 339.112923,120.771604 336.812923,121.431604 C331.492923,122.961604 327.152923,120.921604 326.042923,116.561604 C324.962923,112.311604 327.622923,108.271604 332.312923,106.921604 L332.312923,106.941604 Z M332.902923,109.111604 C330.262923,109.871604 328.672923,112.061604 328.882923,114.491604 C332.142923,113.611604 335.402923,112.681604 338.642923,111.701604 C337.742923,109.371604 335.572923,108.341604 332.902923,109.111604 Z" id="Shape"></path>
                            <path d="M371.512923,99.1416043 C372.522923,101.451604 373.532923,103.761604 374.542923,106.071604 C374.972923,107.061604 374.502923,107.631604 373.632923,108.001604 C373.522923,108.051604 373.412923,108.101604 373.292923,108.141604 C372.382923,108.531604 371.652923,108.481604 371.232923,107.481604 C370.292923,105.271604 369.362923,103.061604 368.422923,100.851604 C367.472923,98.6116043 365.852923,97.9316043 363.552923,98.8716043 C361.902923,99.5416043 360.752923,101.031604 360.462923,102.691604 C361.502923,105.331604 362.532923,107.961604 363.572923,110.601604 C363.972923,111.611604 363.482923,112.151604 362.592923,112.491604 C362.482923,112.531604 362.362923,112.581604 362.252923,112.621604 C361.372923,112.961604 360.602923,112.891604 360.222923,111.881604 C359.382923,109.671604 358.542923,107.471604 357.712923,105.261604 C356.802923,102.871604 355.212923,102.141604 352.882923,102.991604 C351.242923,103.591604 350.012923,105.041604 349.692923,106.671604 C350.632923,109.341604 351.562923,112.011604 352.502923,114.691604 C352.862923,115.711604 352.312923,116.251604 351.452923,116.541604 C351.322923,116.581604 351.202923,116.631604 351.072923,116.671604 C350.182923,116.971604 349.452923,116.871604 349.112923,115.841604 C347.732923,111.751604 346.352923,107.651604 344.972923,103.561604 C344.942923,103.471604 345.392923,103.071604 346.052923,102.851604 C346.972923,102.541604 348.072923,102.541604 348.812923,104.251604 C349.432923,102.541604 350.722923,101.011604 352.872923,100.221604 C355.402923,99.2916043 357.552923,99.6516043 359.072923,101.121604 C359.542923,99.1316043 360.792923,97.2016043 363.352923,96.1516043 C367.262923,94.5416043 370.032923,95.7316043 371.532923,99.1416043 L371.512923,99.1416043 Z" id="Path"></path>
                            <path d="M381.442923,88.0016043 C385.782923,85.8616043 390.002923,86.9416043 392.032923,90.7716043 C392.072923,90.8416043 392.102923,90.9116043 392.142923,90.9816043 C392.432923,91.5416043 392.322923,91.8716043 391.592923,92.2516043 C387.812923,94.2216043 384.002923,96.1016043 380.162923,97.9116043 C380.242923,98.0716043 380.352923,98.2216043 380.462923,98.3716043 C381.922923,100.301604 384.672923,100.741604 387.452923,99.3716043 C390.202923,98.0116043 391.062923,96.3216043 391.272923,94.7616043 C391.312923,94.6816043 393.042923,94.0816043 393.622923,95.2016043 C393.912923,95.7616043 393.712923,96.7816043 392.872923,97.9616043 C392.032923,99.1316043 390.592923,100.441604 388.422923,101.511604 C383.392923,103.981604 378.722923,102.741604 376.872923,98.6516043 C375.072923,94.6516043 377.012923,90.1916043 381.452923,88.0216043 L381.442923,88.0016043 Z M382.402923,90.0416043 C379.912923,91.2616043 378.702923,93.7216043 379.332923,96.0716043 C382.432923,94.6216043 385.502923,93.1116043 388.562923,91.5516043 C387.262923,89.4116043 384.932923,88.8016043 382.402923,90.0416043 Z" id="Shape"></path>
                            <path d="M409.962923,79.2916043 C411.242923,81.3716043 412.532923,83.4416043 413.812923,85.5216043 C414.382923,86.4416043 413.952923,87.0916043 413.162923,87.5816043 C413.042923,87.6516043 412.932923,87.7216043 412.812923,87.7916043 C411.992923,88.2916043 411.252923,88.3516043 410.692923,87.4316043 C409.492923,85.4416043 408.302923,83.4516043 407.102923,81.4616043 C405.842923,79.3816043 403.822923,78.8516043 401.682923,80.1016043 C399.752923,81.2316043 398.772923,82.9516043 398.762923,84.6816043 C400.132923,87.1116043 401.502923,89.5416043 402.872923,91.9816043 C403.402923,92.9216043 402.952923,93.5516043 402.152923,94.0016043 C402.032923,94.0716043 401.912923,94.1316043 401.802923,94.2016043 C400.962923,94.6616043 400.222923,94.6916043 399.702923,93.7516043 C397.622923,89.9616043 395.552923,86.1716043 393.472923,82.3816043 C393.432923,82.3016043 393.802923,81.8216043 394.422923,81.4816043 C395.252923,81.0216043 396.472923,80.8216043 397.472923,82.4616043 C397.792923,80.5616043 398.892923,78.7316043 401.102923,77.4316043 C404.942923,75.1616043 408.082923,76.2616043 409.972923,79.3016043 L409.962923,79.2916043 Z" id="Path"></path>
                            <path d="M418.612923,78.8016043 C417.222923,76.6716043 415.832923,74.5416043 414.452923,72.4116043 C414.102923,72.6416043 413.752923,72.8716043 413.402923,73.0916043 C412.472923,73.6916043 411.902923,73.5916043 411.512923,72.9916043 C411.472923,72.9316043 411.432923,72.8716043 411.402923,72.8116043 C411.012923,72.2016043 411.162923,71.6516043 412.082923,71.0516043 C412.432923,70.8316043 412.772923,70.6016043 413.122923,70.3716043 C412.722923,69.7516043 412.312923,69.1316043 411.912923,68.5116043 C411.352923,67.6616043 411.642923,67.0016043 412.432923,66.4816043 C412.532923,66.4216043 412.632923,66.3516043 412.722923,66.2916043 C413.482923,65.7916043 414.142923,65.7016043 414.762923,66.6316043 C415.172923,67.2516043 415.582923,67.8616043 415.992923,68.4816043 C417.062923,67.7616043 418.132923,67.0316043 419.202923,66.3016043 C420.112923,65.6716043 420.642923,65.7416043 421.052923,66.3416043 C421.092923,66.4016043 421.132923,66.4516043 421.172923,66.5116043 C421.602923,67.1316043 421.472923,67.6916043 420.552923,68.3316043 C419.482923,69.0716043 418.402923,69.8016043 417.322923,70.5316043 C418.672923,72.5516043 420.022923,74.5716043 421.372923,76.5916043 C422.372923,78.0916043 423.382923,78.4616043 424.822923,77.4816043 C425.772923,76.8316043 426.202923,76.0216043 426.322923,75.2116043 C426.362923,75.0716043 427.362923,74.8916043 427.892923,75.6516043 C428.162923,76.0416043 428.212923,76.5616043 428.002923,77.1816043 C427.712923,78.0016043 426.962923,78.9616043 425.692923,79.8216043 C422.622923,81.8916043 420.312923,81.4116043 418.612923,78.8016043 L418.612923,78.8016043 Z" id="Path"></path>
                            <path d="M445.602923,62.4316043 C442.172923,58.1716043 438.732923,53.9116043 435.302923,49.6516043 C434.702923,48.9016043 434.832923,48.2216043 435.602923,47.5916043 C435.742923,47.4816043 435.872923,47.3716043 436.012923,47.2516043 C436.832923,46.5716043 437.532923,46.5816043 438.142923,47.3216043 C441.402923,51.2616043 444.652923,55.2016043 447.912923,59.1416043 C450.612923,56.8916043 453.292923,54.5916043 455.932923,52.2416043 C456.812923,51.4616043 457.582923,51.3716043 458.162923,52.0116043 C458.192923,52.0416043 458.212923,52.0716043 458.242923,52.1016043 C458.822923,52.7516043 458.662923,53.5416043 457.782923,54.3316043 C454.662923,57.1116043 451.492923,59.8216043 448.282923,62.4516043 C447.312923,63.2416043 446.252923,63.2516043 445.592923,62.4316043 L445.602923,62.4316043 Z" id="Path"></path>
                            <path d="M450.492923,32.8016043 C451.452923,31.8916043 452.452923,31.8416043 453.202923,32.6316043 C453.942923,33.4116043 453.832923,34.4016043 452.832923,35.3416043 C451.862923,36.2616043 450.822923,36.3216043 450.112923,35.5516043 C449.382923,34.7616043 449.502923,33.7416043 450.492923,32.8016043 L450.492923,32.8016043 Z M454.342923,39.6816043 C453.612923,38.8916043 453.872923,38.1516043 454.562923,37.5016043 C454.652923,37.4216043 454.742923,37.3316043 454.832923,37.2516043 C455.522923,36.6016043 456.222923,36.3816043 456.992923,37.1816043 C459.712923,40.0416043 462.442923,42.9116043 465.162923,45.7716043 C465.912923,46.5516043 465.632923,47.2716043 464.912923,47.9616043 C464.822923,48.0516043 464.722923,48.1416043 464.632923,48.2216043 C463.902923,48.9016043 463.152923,49.1616043 462.412923,48.3716043 C459.722923,45.4716043 457.032923,42.5816043 454.342923,39.6816043 L454.342923,39.6816043 Z" id="Shape"></path>
                            <path d="M466.212923,25.5916043 C469.742923,21.8716043 474.192923,21.2716043 477.422923,24.1516043 C477.482923,24.2016043 477.542923,24.2616043 477.602923,24.3116043 C478.072923,24.7316043 478.072923,25.0916043 477.482923,25.7516043 C474.452923,29.1116043 471.362923,32.3816043 468.212923,35.5716043 C468.342923,35.7016043 468.492923,35.8016043 468.652923,35.9016043 C470.702923,37.1916043 473.522923,36.5616043 475.772923,34.1816043 C478.002923,31.8216043 478.282923,29.8616043 477.982923,28.2816043 C477.982923,28.1816043 479.482923,26.9416043 480.412923,27.7816043 C480.882923,28.2016043 481.012923,29.2716043 480.582923,30.7216043 C480.152923,32.1716043 479.182923,33.9816043 477.412923,35.8516043 C473.332923,40.1516043 468.392923,40.7416043 465.242923,37.5316043 C462.182923,34.3916043 462.602923,29.4016043 466.202923,25.6016043 L466.212923,25.5916043 Z M467.812923,27.1716043 C465.792923,29.3016043 465.422923,32.1116043 466.802923,34.1216043 C469.332923,31.5516043 471.832923,28.9216043 474.292923,26.2416043 C472.332923,24.6916043 469.852923,25.0116043 467.802923,27.1716043 L467.812923,27.1716043 Z" id="Shape"></path>
                            <path d="M487.432923,3.38160429 C490.842923,6.02160429 494.242923,8.66160429 497.652923,11.3016043 C497.722923,11.3516043 497.522923,12.0116043 497.052923,12.6016043 C496.462923,13.3516043 495.632923,13.9616043 494.542923,13.6016043 C494.282923,13.4916043 494.002923,13.3716043 493.712923,13.1416043 C494.032923,15.1016043 493.552923,17.3816043 491.692923,19.6316043 C488.482923,23.5016043 485.022923,23.5016043 482.312923,21.1416043 C480.472923,19.5416043 478.632923,17.9416043 476.782923,16.3416043 C475.972923,15.6316043 476.142923,14.8916043 476.742923,14.1816043 C476.832923,14.0816043 476.922923,13.9716043 477.012923,13.8716043 C477.642923,13.1316043 478.332923,12.8316043 479.182923,13.5416043 C480.952923,15.0416043 482.722923,16.5416043 484.492923,18.0416043 C486.382923,19.6516043 488.572923,19.3516043 490.392923,17.1416043 C491.892923,15.3216043 492.252923,13.2316043 491.662923,11.5216043 C489.482923,9.78160429 487.292923,8.05160429 485.112923,6.31160429 C484.262923,5.64160429 484.412923,4.88160429 484.992923,4.14160429 C485.082923,4.03160429 485.162923,3.92160429 485.252923,3.81160429 C485.862923,3.03160429 486.542923,2.70160429 487.412923,3.38160429 L487.432923,3.38160429 Z" id="Path"></path>
                        </g>
                        <g fill="#000000">
                            <path d="M44.96,147.06 C40.88,150.49 35.14,154.64 31.66,156.35 C22.88,150.22 14.04,144.15 5.15,138.16 C4.63,138.65 4.12,139.13 3.6,139.62 C2.38,137.15 1.18,134.67 0,132.17 C4.77,126.98 9.45,123.54 14.43,121.28 C15.27,122.04 16.11,122.8 16.95,123.56 C16.55,121.54 16.16,119.51 15.79,117.48 C16.89,115.01 18.02,112.54 19.18,110.09 C22.16,109.62 25.13,109.2 28.09,108.82 C28.14,107.41 28.21,105.99 28.28,104.58 C29.6,102.07 30.95,99.58 32.33,97.1 C36.61,97.64 40.85,98.26 45.04,98.96 C50.77,107.32 56.58,115.61 62.48,123.83 C60.55,127.4 58.68,131 56.89,134.63 C54.28,136.71 50.39,139.37 47.65,141.02 C46.74,143.02 45.84,145.03 44.97,147.05 L44.96,147.06 Z M19.17,125.58 C25.48,130.75 31.76,135.94 38.03,141.15 C38.42,140.84 38.8,140.53 39.19,140.22 C33.25,134.99 27.3,129.77 21.34,124.56 C20.62,124.9 19.89,125.24 19.17,125.58 L19.17,125.58 Z M33.97,111.43 C33.24,111.77 32.52,112.11 31.79,112.45 C37.51,118.2 43.23,123.94 48.94,129.69 C49.34,129.4 49.74,129.11 50.13,128.83 C44.73,123.04 39.34,117.24 33.96,111.43 L33.97,111.43 Z" id="Shape"></path>
                            <path d="M58.49,107.15 C54.94,103.74 51.38,100.35 47.81,96.97 C49.85,93.31 51.96,89.67 54.15,86.07 C59.4,82.28 65.46,79.73 70.77,78.47 C74.75,83.89 78.73,89.31 82.72,94.73 C79.98,97.83 77.29,100.98 74.67,104.17 C74.98,104.56 75.29,104.95 75.6,105.34 C79.5,102.72 83.44,100.2 87.42,97.78 C87.9,99.88 88.39,101.98 88.89,104.06 C86.67,106.78 84.5,109.53 82.38,112.31 C77.32,115.49 71.32,118.33 67.43,119.38 C64.43,115.31 61.46,111.23 58.49,107.14 L58.49,107.15 Z M64.34,88.96 C63.92,89.17 63.51,89.37 63.09,89.58 C65.94,93.18 68.8,96.77 71.65,100.37 C71.9,99.98 72.14,99.59 72.39,99.19 C69.7,95.78 67.02,92.37 64.33,88.95 L64.34,88.96 Z" id="Shape"></path>
                            <path d="M106.73,94.2 C102.43,96.47 96.48,98.94 92.64,99.43 C85.81,89.81 78.98,80.19 72.15,70.57 C71.29,71.04 70.42,71.52 69.56,72 C69.07,69.29 68.6,66.58 68.16,63.85 C73.74,60.1 79.79,57.71 83.29,56.84 C89.79,66.99 96.29,77.13 102.78,87.28 C103.71,86.82 104.63,86.37 105.56,85.92 C105.92,88.69 106.31,91.45 106.72,94.2 L106.73,94.2 Z" id="Path"></path>
                            <path d="M102.38,74.87 C99.45,70.92 96.5,66.98 93.54,63.05 C96.07,59.83 98.66,56.65 101.33,53.5 C106.81,51.29 111.31,50.38 116.37,50.08 C116.97,53.45 117.59,56.81 118.25,60.16 C117.64,61.39 117.05,62.63 116.46,63.87 C113.29,63.18 110.1,62.55 106.87,61.96 C107.01,62.3 107.15,62.64 107.29,62.98 C109.29,63.52 111.28,64.07 113.26,64.64 C115.39,68.47 117.51,72.3 119.64,76.13 C122.42,74.87 125.21,73.66 128.01,72.49 C128.15,74.82 128.31,77.14 128.49,79.46 C126.71,81.32 124.95,83.2 123.22,85.09 C118.61,86.8 112.38,88.32 109.24,88.38 C106.94,83.88 104.66,79.37 102.39,74.86 L102.38,74.87 Z" id="Path"></path>
                            <path d="M149.84,71.25 C142.61,73.79 136.18,75.25 132.34,75.39 C130.34,70.71 128.36,66.03 126.39,61.34 C123.86,57.17 121.31,53.01 118.75,48.86 C121.64,45.71 124.6,42.6 127.64,39.53 C134.42,36.95 141.22,35.81 147.74,35.77 C149.27,40.62 150.82,45.46 152.39,50.3 C154.55,54.67 156.7,59.05 158.84,63.43 C155.78,65.99 152.78,68.59 149.84,71.25 Z M143.37,65.43 C143.78,65.33 144.19,65.23 144.59,65.13 C141.67,58.63 138.75,52.12 135.83,45.62 C135.4,45.73 134.96,45.84 134.53,45.95 C137.48,52.44 140.42,58.93 143.37,65.43 Z" id="Shape"></path>
                            <path d="M208.91,44.11 C208.33,46.82 207.78,49.54 207.26,52.25 C202.56,53.1 196.12,53.38 193.21,52.68 C192.97,51.95 192.72,51.22 192.48,50.49 C192.26,52.36 192.06,54.23 191.87,56.09 C187.22,57.18 181.1,57.69 178.15,57.14 C177.82,56.14 177.5,55.13 177.17,54.13 C177,56.32 176.85,58.52 176.72,60.71 C172.84,61.68 166.34,62.37 162.99,61.81 C160.03,54.06 157.07,46.3 154.1,38.55 C153.45,38.68 152.79,38.8 152.14,38.93 C152.12,35.91 152.12,32.89 152.14,29.86 C156.58,28.67 162.49,28.19 166.15,28.45 C166.32,27.02 166.5,25.58 166.68,24.15 C171.43,23.01 178.37,22.81 182.62,23.56 C182.87,22.09 183.13,20.63 183.4,19.16 C188.62,18.14 196.33,18.41 200.35,19.61 C202.2,27.88 204.05,36.14 205.9,44.41 C206.9,44.31 207.9,44.21 208.9,44.11 L208.91,44.11 Z M175.24,53.07 C175.65,53.01 176.07,52.96 176.48,52.91 C174.26,46.12 172.04,39.32 169.82,32.53 C169.38,32.59 168.94,32.65 168.5,32.72 C170.75,39.51 172.99,46.29 175.24,53.08 L175.24,53.07 Z M184.8,27.8 C186.72,34.73 188.63,41.65 190.55,48.58 C190.96,48.53 191.37,48.48 191.78,48.42 C189.9,41.51 188.01,34.59 186.13,27.68 C185.69,27.72 185.25,27.76 184.81,27.8 L184.8,27.8 Z" id="Shape"></path>
                            <path d="M209.61,32.67 C208.22,27.95 206.8,23.24 205.37,18.54 C208.75,16.41 212.18,14.33 215.66,12.3 C221.8,11.64 228.06,12.43 233.11,13.96 C233.94,20.63 234.78,27.3 235.61,33.97 C231.86,35.3 228.16,36.7 224.49,38.17 C224.57,38.66 224.65,39.16 224.73,39.65 C229.21,39.32 233.68,39.09 238.15,38.95 C237.58,41.01 237.02,43.07 236.47,45.13 C233.34,46.39 230.25,47.7 227.18,49.06 C221.47,49.3 215.16,48.75 211.44,47.7 C210.81,42.69 210.19,37.68 209.6,32.67 L209.61,32.67 Z M222.87,19.88 C222.43,19.85 221.98,19.82 221.54,19.8 C222.27,24.33 223,28.86 223.73,33.4 C224.12,33.18 224.5,32.97 224.89,32.75 C224.21,28.46 223.54,24.17 222.86,19.89 L222.87,19.88 Z" id="Shape"></path>
                            <path d="M270.73,44.77 C265.06,44.57 259.09,43.02 255.85,41.74 C255.41,34.94 254.98,28.13 254.54,21.33 C253.31,21.06 252.08,20.8 250.84,20.54 C251.96,17.68 253.12,14.83 254.31,11.99 C255.18,7.99 256.09,3.99 257.04,0 C260.43,0.91 265.04,3.34 267.76,5.59 C267.99,6.95 268.22,8.31 268.44,9.67 C269.54,9.65 270.64,9.63 271.75,9.61 C271.8,13.49 271.85,17.37 271.9,21.25 C271.17,21.25 270.43,21.27 269.7,21.28 C269.79,26.06 269.88,30.84 269.97,35.62 C271.47,35.75 272.96,35.88 274.46,36.03 C273.19,38.94 271.95,41.85 270.74,44.77 L270.73,44.77 Z" id="Path"></path>
                            <path d="M293.96,45.35 C286.48,44.35 280.22,42.72 276.81,41.1 C277.16,36.03 277.52,30.96 277.89,25.89 C277.54,21.03 277.18,16.17 276.8,11.31 C280.73,9.82 284.7,8.4 288.73,7.04 C295.82,7.81 302.3,9.87 308.05,12.77 C307.22,17.79 306.4,22.8 305.6,27.82 C305.54,32.69 305.46,37.56 305.37,42.44 C301.53,43.34 297.72,44.31 293.96,45.35 L293.96,45.35 Z M290.9,37.23 C291.3,37.33 291.7,37.42 292.11,37.52 C292.47,30.4 292.82,23.29 293.18,16.17 C292.75,16.07 292.32,15.97 291.89,15.88 C291.56,23 291.23,30.12 290.91,37.23 L290.9,37.23 Z" id="Shape"></path>
                            <path d="M339.94,51.35 C332.67,49.26 326.7,46.73 323.56,44.63 C324.65,39.67 325.76,34.7 326.88,29.75 C327.25,24.89 327.61,20.03 327.95,15.17 C332.06,14.27 336.21,13.44 340.41,12.69 C347.33,14.49 353.45,17.48 358.74,21.2 C357.17,26.04 355.62,30.88 354.09,35.73 C353.31,40.54 352.52,45.35 351.7,50.15 C347.75,50.47 343.83,50.87 339.94,51.34 L339.94,51.35 Z M338.1,42.87 C338.49,43.02 338.87,43.18 339.25,43.33 C340.65,36.34 342.05,29.36 343.46,22.37 C343.05,22.21 342.64,22.05 342.23,21.89 C340.85,28.88 339.48,35.88 338.1,42.87 L338.1,42.87 Z" id="Shape"></path>
                            <path d="M383.33,63.43 C379.76,61.75 374.22,58.32 372.1,56.28 C371.24,57.28 370.39,58.28 369.54,59.28 C364.75,57.23 358.86,53.87 356.19,51.28 C358.27,43.31 360.35,35.33 362.44,27.36 C361.78,27.03 361.11,26.7 360.45,26.37 C362.18,23.87 363.94,21.39 365.72,18.92 C370.32,20.47 376.16,23.79 378.99,26.12 C378.69,27.07 378.4,28.03 378.1,28.98 C379.68,27.18 381.28,25.38 382.89,23.59 C386.95,25.4 393.2,29.88 395.16,32.21 C392.25,40.17 389.34,48.13 386.43,56.09 C387.33,56.54 388.24,57 389.14,57.46 C387.18,59.43 385.24,61.42 383.33,63.43 L383.33,63.43 Z M377.55,30.75 C375.43,37.58 373.32,44.4 371.2,51.23 C371.57,51.42 371.94,51.62 372.3,51.81 C374.44,44.99 376.58,38.17 378.73,31.35 C378.34,31.15 377.94,30.94 377.55,30.74 L377.55,30.75 Z" id="Shape"></path>
                            <path d="M396.74,37.66 C398.74,35.39 400.76,33.14 402.8,30.9 C405.51,32.62 408.61,35.3 410.45,37.26 C411.24,36.21 412.03,35.17 412.82,34.13 C417.37,37.1 421.25,41.65 422.78,45.68 C420.54,47.73 418.32,49.79 416.12,51.87 C414.89,52.26 413.66,52.65 412.43,53.05 C411.12,50.49 409.77,47.93 408.38,45.39 C408.19,45.71 408.01,46.02 407.82,46.34 C408.53,48 409.23,49.65 409.91,51.31 C408.16,55.33 406.41,59.34 404.65,63.36 C405.59,63.96 406.53,64.56 407.46,65.17 C405.45,67.03 403.45,68.9 401.48,70.79 C397,68.32 391.86,64.59 389.54,61.93 C392.51,54.18 395.48,46.43 398.45,38.68 C397.88,38.34 397.31,38 396.73,37.66 L396.74,37.66 Z" id="Path"></path>
                            <path d="M450.88,69.69 C449.49,67.32 448.07,64.96 446.62,62.61 C446.42,62.96 446.22,63.31 446.01,63.66 C447.71,67.15 449.33,70.65 450.88,74.16 C448.04,78.77 445.2,83.39 442.36,88 C439.28,87.7 436.22,87.46 433.17,87.27 C428.89,83.98 425.28,80.13 423.11,77.05 C425.41,74.63 427.72,72.22 430.06,69.84 C431.85,72.52 433.59,75.21 435.29,77.92 C435.48,77.59 435.67,77.25 435.86,76.92 C434.48,73.35 433.03,69.79 431.51,66.23 C434.07,61.43 436.62,56.63 439.18,51.83 C442.75,52.12 446.35,52.48 449.95,52.9 C454.03,55.88 458.04,60.13 460.35,63.55 C457.16,65.56 454,67.61 450.89,69.7 L450.88,69.69 Z" id="Path"></path>
                            <path d="M470.5,54.69 C476.03,58.44 480.46,63.13 482.34,65.88 C480.38,68.66 478.42,71.44 476.45,74.22 C477.88,73.61 479.31,73 480.75,72.4 C484.6,75.92 489.1,82.12 490.45,85.34 C485.21,92 479.98,98.66 474.74,105.32 C475.49,106.06 476.23,106.8 476.97,107.54 C474.46,108.78 471.97,110.03 469.5,111.32 C465.7,108.09 461.22,103.13 459.84,100.39 C460.45,99.53 461.07,98.67 461.68,97.81 C459.79,98.97 457.92,100.13 456.06,101.31 C452.87,98.69 448.31,93.79 446.73,90.74 C453.08,80.8 459.43,70.85 465.78,60.91 C465.02,60.29 464.26,59.67 463.5,59.06 C465.81,57.59 468.14,56.13 470.49,54.69 L470.5,54.69 Z M461.36,95.59 C461.66,95.9 461.96,96.2 462.26,96.51 L474.7,79.04 C474.38,78.72 474.05,78.39 473.73,78.07 C469.61,83.91 465.48,89.75 461.36,95.59 L461.36,95.59 Z" id="Shape"></path>
                            <path d="M487.29,126.66 C481.79,120.82 477.69,115.4 475.93,111.87 C479.4,108.15 482.88,104.45 486.38,100.76 C489.15,96.75 491.91,92.72 494.66,88.69 C498.8,90.13 502.95,91.68 507.1,93.32 C512.42,98.68 516.44,104.68 519.35,110.88 C515.51,114.22 511.69,117.57 507.88,120.93 C504.77,124.68 501.64,128.43 498.5,132.16 C494.77,130.23 491.04,128.4 487.3,126.66 L487.29,126.66 Z M489.88,118.27 C490.15,118.62 490.42,118.96 490.69,119.31 C495.46,114.01 500.22,108.71 504.99,103.41 C504.7,103.04 504.41,102.68 504.12,102.32 C499.38,107.64 494.63,112.96 489.89,118.28 L489.88,118.27 Z" id="Shape"></path>
                            <path d="M534.4,149.25 C530.73,152.78 527.05,156.29 523.35,159.79 C520.05,157.43 516.74,155.15 513.41,152.97 C512.76,151.24 512.41,148.66 512.47,146.65 C511.38,147.62 510.29,148.6 509.21,149.57 C509.89,150.53 510.56,151.5 511.23,152.48 C508.66,153.33 506.1,154.2 503.55,155.1 C499.97,150.62 496.48,145.21 495.34,141.92 C503.41,133.97 511.48,126.01 519.56,118.06 C519.15,117.48 518.75,116.9 518.34,116.33 C521.14,115.14 523.96,113.98 526.79,112.84 C529.86,116.64 532.95,122.17 534.35,125.83 C535.76,125.45 537.18,125.08 538.6,124.71 C542.12,129.25 545.72,136.82 546.65,141.23 C542.56,143.89 538.47,146.57 534.4,149.26 L534.4,149.25 Z M515.87,143.61 C516.11,143.99 516.34,144.37 516.58,144.76 C521.78,140.15 526.98,135.53 532.19,130.92 C531.94,130.52 531.68,130.11 531.42,129.71 C526.24,134.34 521.05,138.98 515.87,143.61 L515.87,143.61 Z" id="Shape"></path>
                        </g>
                    </g>
                    <path d="M17.6,190.41 C26.32,203.78 38.16,219.35 54.01,234.94 C79.24,259.76 104.97,275.15 124.15,284.55" id="Path" stroke="#D3D1CB" stroke-width="3"></path>
                    <path d="M268.9,320.49 C294.26,320.92 331.16,318.7 373.37,305.81 C413.34,293.6 443.87,276.17 464.29,262.33" id="Path" stroke="#D3D1CB" stroke-width="3"></path>
                    <path d="M147.45,294.76 C158.34,299.55 170.8,304.27 184.75,308.35 C206.51,314.7 226.38,317.86 243.1,319.36" id="Path" stroke="#D3D1CB" stroke-width="3"></path>
                    <path d="M476.66,253.39 C485.24,246.51 494.43,238.31 503.72,228.61 C518.22,213.48 529.28,198.55 537.65,185.48" id="Path" stroke="#D3D1CB" stroke-width="3"></path>
                </g>
            </g>
        </g>
    </g>
</svg>