<?xml version="1.0" encoding="UTF-8"?>
<svg width="45px" height="45px" viewBox="0 0 45 45" version="1.1" xmlns="http://www.w3.org/2000/svg" xmlns:xlink="http://www.w3.org/1999/xlink">
    <title>instagram</title>
    <g id="Page-1" stroke="none" stroke-width="1" fill="none" fill-rule="evenodd">
        <g id="Large-Devices:-Desktops---12-col" transform="translate(-45.000000, -3708.000000)" fill="#000000" fill-rule="nonzero">
            <g id="footer" transform="translate(0.000000, 3339.000000)">
                <g id="instagram" transform="translate(45.000000, 369.000000)">
                    <path d="M22.5050195,10.9625683 C16.1201896,10.9625683 10.9701617,16.1137454 10.9701617,22.5 C10.9701617,28.8862546 16.1201896,34.0374317 22.5050195,34.0374317 C28.8898494,34.0374317 34.0398773,28.8862546 34.0398773,22.5 C34.0398773,16.1137454 28.8898494,10.9625683 22.5050195,10.9625683 Z M22.5050195,30.0008368 C18.3789738,30.0008368 15.0058561,26.6370077 15.0058561,22.5 C15.0058561,18.3629923 18.3689347,14.9991632 22.5050195,14.9991632 C26.6411043,14.9991632 30.0041829,18.3629923 30.0041829,22.5 C30.0041829,26.6370077 26.6310653,30.0008368 22.5050195,30.0008368 L22.5050195,30.0008368 Z M37.2021751,10.4906281 C37.2021751,11.986779 35.9974902,13.1816914 34.5117122,13.1816914 C33.0158951,13.1816914 31.8212493,11.9767377 31.8212493,10.4906281 C31.8212493,9.00451858 33.0259342,7.79956488 34.5117122,7.79956488 C35.9974902,7.79956488 37.2021751,9.00451858 37.2021751,10.4906281 Z M44.8418851,13.2218565 C44.6712214,9.61703671 43.8480201,6.42390941 41.2077524,3.79309383 C38.5775237,1.16227826 35.3851088,0.338893228 31.7810931,0.158150173 C28.0666481,-0.0527167243 16.9333519,-0.0527167243 13.2189069,0.158150173 C9.62493028,0.328851947 6.43251534,1.15223697 3.79224763,3.78305255 C1.15197992,6.41386812 0.338817624,9.60699543 0.158114891,13.2118152 C-0.0527049637,16.9270891 -0.0527049637,28.0628696 0.158114891,31.7781435 C0.328778583,35.3829633 1.15197992,38.5760906 3.79224763,41.2069062 C6.43251534,43.8377217 9.61489124,44.6611068 13.2189069,44.8418498 C16.9333519,45.0527167 28.0666481,45.0527167 31.7810931,44.8418498 C35.3851088,44.6711481 38.5775237,43.847763 41.2077524,41.2069062 C43.837981,38.5760906 44.6611824,35.3829633 44.8418851,31.7781435 C45.052705,28.0628696 45.052705,16.9371304 44.8418851,13.2218565 Z M40.0432236,35.764532 C39.2601785,37.732623 37.7442833,39.2488564 35.7665923,40.0421176 C32.8050753,41.2169475 25.7777468,40.9458329 22.5050195,40.9458329 C19.2322922,40.9458329 12.1949247,41.2069062 9.24344674,40.0421176 C7.27579476,39.2588977 5.75989961,37.7426643 4.96681539,35.764532 C3.79224763,32.8023541 4.06330173,25.7734575 4.06330173,22.5 C4.06330173,19.2265425 3.80228667,12.1876046 4.96681539,9.23546804 C5.74986057,7.26737699 7.26575572,5.75114359 9.24344674,4.95788241 C12.2049637,3.78305255 19.2322922,4.05416713 22.5050195,4.05416713 C25.7777468,4.05416713 32.8151143,3.79309383 35.7665923,4.95788241 C37.7342443,5.74110231 39.2501394,7.25733571 40.0432236,9.23546804 C41.2177914,12.1976459 40.9467373,19.2265425 40.9467373,22.5 C40.9467373,25.7734575 41.2177914,32.8123954 40.0432236,35.764532 Z" id="Shape"></path>
                </g>
            </g>
        </g>
    </g>
</svg>