<?xml version="1.0" encoding="UTF-8"?>
<svg width="45px" height="34px" viewBox="0 0 45 34" version="1.1" xmlns="http://www.w3.org/2000/svg" xmlns:xlink="http://www.w3.org/1999/xlink">
    <title>envelope</title>
    <g id="Page-1" stroke="none" stroke-width="1" fill="none" fill-rule="evenodd">
        <g id="Large-Devices:-Desktops---12-col" transform="translate(-45.000000, -3576.000000)" fill="#000000" fill-rule="nonzero">
            <g id="footer" transform="translate(0.000000, 3339.000000)">
                <g id="envelope" transform="translate(45.000000, 237.000000)">
                    <path d="M0,5.66666667 C0,2.53671875 2.51806641,0 5.625,0 L39.375,0 C42.4775391,0 45,2.53671875 45,5.66666667 L45,28.3333333 C45,31.4588542 42.4775391,34 39.375,34 L5.625,34 C2.51806641,34 0,31.4588542 0,28.3333333 L0,5.66666667 Z M4.21875,5.66666667 L4.21875,7.6234375 L19.3798828,20.1609375 C21.1904297,21.6661458 23.8095703,21.6661458 25.6201172,20.1609375 L40.78125,7.6234375 L40.78125,5.58697917 C40.78125,4.8875 40.1484375,4.1703125 39.375,4.1703125 L5.625,4.1703125 C4.84804687,4.1703125 4.21875,4.8875 4.21875,5.58697917 L4.21875,5.66666667 Z M4.21875,13.121875 L4.21875,28.3333333 C4.21875,29.1125 4.84804687,29.75 5.625,29.75 L39.375,29.75 C40.1484375,29.75 40.78125,29.1125 40.78125,28.3333333 L40.78125,13.121875 L28.3007812,23.4458333 C24.9257813,26.2348958 20.0742188,26.2348958 16.6201172,23.4458333 L4.21875,13.121875 Z" id="Shape"></path>
                </g>
            </g>
        </g>
    </g>
</svg>