<?xml version="1.0" encoding="UTF-8"?>
<svg width="45px" height="45px" viewBox="0 0 45 45" version="1.1" xmlns="http://www.w3.org/2000/svg" xmlns:xlink="http://www.w3.org/1999/xlink">
    <title>phone</title>
    <g id="Page-1" stroke="none" stroke-width="1" fill="none" fill-rule="evenodd">
        <g id="Large-Devices:-Desktops---12-col" transform="translate(-45.000000, -3638.000000)" fill="#000000" fill-rule="nonzero">
            <g id="footer" transform="translate(0.000000, 3339.000000)">
                <g id="phone" transform="translate(45.000000, 299.000000)">
                    <path d="M14.4925258,2.1639958 C13.8157978,0.529302169 12.0316967,-0.340776702 10.3266937,0.125023098 L2.59265926,2.23430521 C1.06342973,2.65616163 0,4.04477235 0,5.62673394 C0,27.369917 17.630083,45 39.3732661,45 C40.9552276,45 42.3438384,43.9365703 42.7656948,42.4073407 L44.8749769,34.6733063 C45.3407767,32.9683033 44.4706978,31.1842022 42.8360042,30.5074742 L34.3988758,26.992004 C32.9663217,26.394374 31.305262,26.8074418 30.329719,28.0114903 L26.7790941,32.3443073 C20.5918666,29.4176784 15.5823216,24.4081334 12.6556927,18.2209059 L16.9885097,14.6790697 C18.1925582,13.694738 18.605626,12.042467 18.007996,10.6099129 L14.4925258,2.17278448 L14.4925258,2.1639958 Z" id="Path"></path>
                </g>
            </g>
        </g>
    </g>
</svg>